<svg id="svg" version="1.1" xmlns="http://www.w3.org/2000/svg" xmlns:xlink="http://www.w3.org/1999/xlink" width="400" height="400" viewBox="0, 0, 400,400"><g id="svgg"><path id="path0" d="M91.400 12.663 C 85.349 13.382,83.513 13.789,80.776 15.018 C 79.113 15.765,76.551 16.655,75.084 16.995 C 71.700 17.780,70.402 18.274,69.400 19.161 C 68.960 19.551,67.227 20.359,65.548 20.958 C 63.870 21.556,62.097 22.471,61.609 22.991 C 61.120 23.511,60.154 24.162,59.460 24.438 C 58.767 24.714,57.353 25.719,56.317 26.670 C 55.282 27.622,54.255 28.400,54.036 28.400 C 53.817 28.400,53.059 29.255,52.352 30.300 L 51.065 32.200 52.860 30.300 C 53.848 29.255,54.915 28.400,55.232 28.400 C 55.549 28.400,56.311 27.934,56.925 27.365 C 57.741 26.608,59.717 25.857,64.281 24.571 C 72.450 22.269,73.443 21.880,82.506 17.427 C 90.016 13.738,91.254 13.320,96.600 12.667 C 97.260 12.586,96.630 12.520,95.200 12.520 C 93.770 12.520,92.060 12.584,91.400 12.663 M105.106 20.900 C 104.775 23.747,101.762 28.928,98.625 32.044 C 97.826 32.838,96.642 34.323,95.995 35.344 C 95.347 36.365,94.653 37.200,94.452 37.200 C 89.647 37.200,105.892 56.369,117.164 64.000 C 117.977 64.550,119.429 65.675,120.393 66.500 C 121.356 67.325,122.318 68.000,122.531 68.000 C 122.744 68.000,123.656 68.604,124.559 69.342 C 125.461 70.080,127.280 71.280,128.600 72.007 C 129.920 72.734,131.450 73.739,132.000 74.239 C 132.550 74.739,133.884 75.526,134.965 75.988 C 136.046 76.450,137.756 77.424,138.765 78.154 C 139.774 78.884,141.651 79.955,142.935 80.535 C 144.219 81.114,145.790 82.025,146.425 82.560 C 147.060 83.094,148.259 83.751,149.090 84.020 C 151.200 84.702,153.604 85.946,154.886 87.017 C 155.484 87.517,157.381 88.394,159.103 88.968 C 161.537 89.778,162.384 90.265,162.909 91.153 C 163.280 91.782,164.128 92.500,164.792 92.748 C 165.456 92.997,166.540 93.402,167.200 93.649 C 168.805 94.248,168.721 94.590,166.600 96.085 C 164.660 97.453,164.434 97.998,165.454 98.845 C 165.814 99.144,166.533 100.061,167.052 100.883 C 167.571 101.705,168.559 102.669,169.248 103.025 C 170.819 103.837,175.521 108.518,176.717 110.460 C 177.212 111.263,177.870 112.018,178.181 112.137 C 178.492 112.257,179.412 113.400,180.226 114.677 C 181.041 115.955,182.222 117.590,182.851 118.311 C 183.480 119.032,184.376 120.370,184.843 121.283 C 185.309 122.197,186.028 123.227,186.441 123.572 C 186.853 123.918,187.839 125.550,188.631 127.200 C 189.424 128.850,190.402 130.560,190.805 131.000 C 191.209 131.440,192.011 133.060,192.587 134.600 C 193.164 136.140,194.089 138.057,194.645 138.860 C 195.200 139.664,196.074 141.824,196.587 143.660 C 197.100 145.497,198.018 148.071,198.626 149.381 C 201.771 156.149,203.243 175.564,201.463 186.800 C 199.822 197.163,199.302 199.508,198.009 202.389 C 197.364 203.825,196.456 206.350,195.990 208.000 C 195.524 209.650,194.643 211.720,194.033 212.600 C 193.423 213.480,192.440 215.479,191.849 217.042 C 191.258 218.606,190.348 220.285,189.827 220.774 C 189.307 221.263,188.421 222.687,187.860 223.938 C 187.298 225.189,186.290 226.739,185.619 227.382 C 184.947 228.025,184.021 229.331,183.560 230.283 C 183.099 231.235,182.388 232.192,181.980 232.410 C 181.572 232.629,180.502 233.836,179.602 235.093 C 178.702 236.350,177.368 237.871,176.638 238.473 C 175.908 239.075,175.102 240.070,174.848 240.684 C 174.593 241.299,173.713 242.161,172.893 242.601 C 172.056 243.049,171.136 243.966,170.800 244.687 C 170.415 245.514,169.680 246.186,168.746 246.566 C 167.896 246.911,166.927 247.747,166.413 248.578 C 165.930 249.360,165.234 250.001,164.867 250.001 C 164.500 250.002,163.632 250.349,162.938 250.773 C 162.244 251.196,161.569 251.435,161.438 251.304 C 160.802 250.669,161.324 249.500,162.573 248.763 C 163.434 248.255,164.039 247.534,164.193 246.832 C 164.328 246.216,164.985 245.192,165.653 244.556 C 166.321 243.920,167.414 242.590,168.081 241.600 C 168.749 240.610,169.545 239.655,169.850 239.479 C 170.156 239.302,170.747 238.492,171.164 237.679 C 171.581 236.865,172.405 235.750,172.996 235.200 C 173.587 234.650,174.323 233.596,174.632 232.858 C 174.941 232.120,175.983 230.320,176.948 228.858 C 177.913 227.396,178.836 225.750,179.000 225.200 C 179.163 224.650,179.896 223.120,180.627 221.800 C 184.400 214.992,187.247 206.007,189.563 193.600 C 193.836 170.713,187.676 145.650,172.286 123.308 C 171.108 121.599,169.354 119.055,168.387 117.656 C 165.715 113.791,161.777 109.743,158.630 107.628 C 152.634 103.598,139.422 96.484,126.800 90.490 C 111.734 83.335,112.200 83.380,112.200 89.071 C 112.200 92.133,112.326 92.857,112.984 93.584 C 113.752 94.431,113.422 95.173,112.269 95.194 C 112.086 95.197,111.224 95.920,110.353 96.800 C 108.235 98.939,106.362 99.057,105.573 97.100 C 105.284 96.385,104.138 94.895,103.024 93.789 C 101.911 92.683,100.590 91.243,100.090 90.589 C 99.429 89.725,99.477 89.892,100.266 91.200 C 100.864 92.190,101.839 93.540,102.433 94.200 C 103.028 94.860,103.917 96.210,104.411 97.200 C 104.904 98.190,105.800 99.564,106.401 100.254 C 107.003 100.944,107.996 102.834,108.608 104.454 C 109.220 106.074,110.070 107.900,110.496 108.511 C 111.578 110.063,111.868 111.326,112.782 118.450 C 113.335 122.761,113.942 125.677,114.740 127.850 C 115.377 129.582,116.282 133.328,116.753 136.173 C 117.266 139.278,118.016 142.237,118.629 143.573 C 121.572 149.996,122.561 175.239,120.581 193.400 C 120.234 196.588,119.567 199.302,118.802 200.644 C 118.412 201.329,117.874 203.219,117.606 204.844 C 117.339 206.470,116.968 208.723,116.782 209.852 C 116.597 210.980,115.805 213.110,115.022 214.585 C 113.832 216.829,113.601 217.669,113.606 219.733 C 113.614 223.018,113.798 223.238,116.361 223.025 C 120.947 222.644,130.274 227.265,136.179 232.843 C 140.819 237.227,141.753 237.604,142.949 235.578 C 143.391 234.830,144.502 233.963,145.812 233.342 C 147.557 232.516,148.003 232.097,148.228 231.070 C 148.844 228.270,150.910 226.905,151.426 228.960 C 151.822 230.537,150.470 234.145,149.213 234.867 C 148.448 235.306,147.987 236.027,147.672 237.281 C 147.424 238.264,146.489 239.988,145.594 241.113 C 144.699 242.237,143.683 243.988,143.337 245.004 C 142.991 246.020,142.353 247.065,141.919 247.326 C 141.485 247.586,140.608 248.827,139.968 250.083 C 139.329 251.338,138.290 252.958,137.658 253.683 C 137.027 254.407,136.191 255.630,135.801 256.400 C 135.410 257.170,134.486 258.476,133.745 259.301 C 133.005 260.127,132.400 260.965,132.400 261.164 C 132.400 261.519,129.076 265.904,125.301 270.528 C 123.631 272.574,120.465 276.060,118.273 278.268 C 117.873 278.671,116.939 279.630,116.198 280.400 C 115.456 281.170,114.500 282.137,114.073 282.548 C 113.645 282.959,112.727 283.859,112.032 284.548 C 111.338 285.237,110.551 286.016,110.285 286.280 C 110.018 286.544,108.810 287.649,107.600 288.735 C 101.106 294.564,99.460 296.154,96.470 299.482 C 95.442 300.627,94.048 302.167,93.373 302.904 C 92.697 303.642,91.590 305.045,90.913 306.022 C 90.235 307.000,89.109 308.340,88.412 309.000 C 87.715 309.660,86.801 310.754,86.382 311.431 C 84.966 313.718,82.343 314.739,78.200 314.613 C 74.095 314.489,71.303 314.090,70.989 313.583 C 70.871 313.391,70.516 313.334,70.201 313.455 C 69.850 313.589,68.842 312.857,67.612 311.574 C 66.504 310.418,65.193 309.274,64.699 309.030 C 64.204 308.787,63.350 307.736,62.800 306.695 C 62.250 305.654,61.587 304.802,61.327 304.801 C 61.067 304.801,60.739 304.436,60.597 303.992 C 60.456 303.548,59.764 302.423,59.058 301.492 C 58.352 300.561,57.553 299.080,57.283 298.200 C 56.854 296.805,55.188 294.400,54.651 294.400 C 54.453 294.400,53.428 297.487,53.040 299.252 C 52.888 299.944,52.328 300.533,51.404 300.971 C 50.632 301.338,49.998 301.674,49.995 301.719 C 49.871 303.639,48.189 309.577,47.309 311.201 C 44.622 316.162,44.809 330.185,47.616 334.200 C 48.610 335.621,48.830 337.602,48.223 339.648 C 47.880 340.801,47.600 341.794,47.600 341.854 C 47.600 341.913,48.054 341.541,48.610 341.026 C 51.238 338.590,58.625 338.706,60.400 341.211 C 60.730 341.676,61.755 342.939,62.678 344.017 C 64.150 345.736,65.191 347.991,65.198 349.476 C 65.199 349.737,65.903 350.763,66.761 351.755 C 67.620 352.747,68.778 354.521,69.334 355.698 C 69.892 356.876,70.795 358.076,71.346 358.371 C 73.113 359.317,73.771 363.344,72.609 366.100 C 72.395 366.609,72.501 366.800,73.000 366.800 C 73.377 366.800,74.367 367.340,75.200 368.000 C 76.033 368.660,77.139 369.203,77.658 369.207 C 78.176 369.211,79.950 369.569,81.600 370.004 C 87.348 371.518,97.424 372.385,98.094 371.422 C 98.722 370.520,98.306 370.064,95.700 368.801 C 94.215 368.081,92.460 367.093,91.800 366.605 C 91.140 366.117,90.060 365.428,89.400 365.073 C 85.667 363.065,80.188 356.454,77.972 351.283 C 73.962 341.927,74.870 336.829,81.835 329.600 C 84.975 326.342,85.797 325.186,87.603 321.490 C 88.761 319.120,89.861 317.086,90.048 316.971 C 90.234 316.855,91.196 315.510,92.185 313.981 C 95.134 309.422,95.931 310.514,95.249 318.174 C 94.166 330.337,94.423 331.107,100.383 333.544 C 105.907 335.803,107.711 338.692,108.407 346.400 C 108.889 351.734,109.399 354.937,109.895 355.756 C 111.558 358.502,114.820 362.180,116.546 363.257 C 117.676 363.962,119.141 365.039,119.801 365.652 C 120.462 366.265,121.811 367.051,122.798 367.399 C 123.785 367.748,125.552 368.574,126.724 369.235 C 128.162 370.047,130.375 370.743,133.528 371.376 C 136.097 371.892,139.190 372.700,140.400 373.171 C 145.614 375.204,159.189 375.141,164.800 373.058 C 166.230 372.528,169.740 371.694,172.600 371.206 C 176.675 370.510,178.172 370.074,179.522 369.190 C 180.545 368.520,182.694 367.728,184.812 367.240 C 186.774 366.788,189.329 365.889,190.489 365.241 C 191.650 364.593,193.410 363.856,194.400 363.603 C 197.945 362.696,205.072 358.917,206.280 357.304 C 207.942 355.083,210.787 352.487,212.600 351.536 C 213.480 351.074,214.946 350.045,215.858 349.248 C 216.769 348.452,218.209 347.306,219.058 346.702 C 222.134 344.511,227.195 340.365,231.200 336.755 C 233.650 334.546,246.713 321.477,248.948 319.000 C 253.719 313.709,255.127 312.050,256.333 310.297 C 257.051 309.254,257.795 308.400,257.987 308.400 C 258.178 308.400,258.741 307.725,259.238 306.900 C 259.735 306.075,260.920 304.553,261.871 303.517 C 262.822 302.482,263.600 301.454,263.600 301.233 C 263.600 301.012,264.394 299.857,265.364 298.666 C 266.334 297.475,267.434 295.893,267.809 295.150 C 268.183 294.408,268.993 293.260,269.609 292.600 C 270.224 291.940,271.214 290.500,271.808 289.400 C 272.402 288.300,273.386 286.764,273.994 285.986 C 274.602 285.209,275.591 283.589,276.193 282.386 C 276.794 281.184,277.698 279.750,278.202 279.200 C 278.705 278.650,279.524 277.210,280.022 276.000 C 280.520 274.790,281.507 273.032,282.217 272.094 C 282.926 271.156,283.920 269.266,284.424 267.894 C 284.928 266.522,285.841 264.818,286.452 264.107 C 287.064 263.395,287.924 261.646,288.365 260.220 C 289.206 257.495,289.823 256.242,291.377 254.101 C 291.895 253.386,292.622 251.443,292.991 249.783 C 293.522 247.396,293.941 246.486,294.992 245.435 C 296.000 244.427,296.430 243.536,296.770 241.753 C 297.837 236.163,298.127 235.409,299.263 235.277 C 300.626 235.119,301.040 236.367,301.361 241.600 C 301.676 246.755,301.716 246.844,304.320 248.208 C 312.050 252.258,304.828 278.350,289.326 302.386 C 288.267 304.029,287.163 305.829,286.873 306.386 C 286.584 306.944,286.020 307.760,285.620 308.200 C 285.221 308.640,284.597 309.540,284.235 310.200 C 283.523 311.497,282.854 312.443,273.800 324.961 C 270.500 329.523,267.350 333.943,266.800 334.782 C 265.313 337.052,262.617 340.522,261.838 341.169 C 261.462 341.481,260.915 342.309,260.622 343.009 C 260.330 343.709,259.530 344.680,258.845 345.168 C 258.160 345.655,257.600 346.294,257.600 346.588 C 257.600 346.881,256.790 348.198,255.800 349.515 C 254.810 350.832,254.000 352.117,254.000 352.371 C 254.000 353.106,252.533 355.780,251.375 357.157 C 250.747 357.903,250.391 358.723,250.506 359.160 C 250.612 359.568,250.003 361.224,249.150 362.845 C 248.297 364.465,247.600 366.062,247.599 366.395 C 247.599 367.004,244.512 369.200,243.658 369.200 C 242.765 369.200,243.216 369.989,244.258 370.250 C 244.840 370.396,245.644 370.805,246.044 371.158 C 246.445 371.511,247.222 372.205,247.771 372.699 C 249.075 373.873,256.075 374.081,258.612 373.021 C 260.334 372.301,265.747 371.384,270.600 370.989 C 272.360 370.845,274.880 370.495,276.200 370.209 C 277.520 369.923,279.498 369.562,280.595 369.406 C 283.088 369.052,284.226 368.461,286.000 366.599 C 286.770 365.791,288.120 364.762,289.000 364.313 C 289.880 363.864,291.346 362.845,292.258 362.048 C 293.169 361.252,294.609 360.105,295.458 359.500 C 304.778 352.851,321.896 335.114,327.479 326.319 C 328.183 325.211,329.132 324.043,329.587 323.724 C 330.042 323.405,330.842 322.302,331.364 321.272 C 331.886 320.242,332.716 319.040,333.208 318.600 C 333.699 318.160,334.684 316.540,335.395 315.000 C 336.106 313.460,337.159 311.800,337.733 311.312 C 338.308 310.823,338.899 309.923,339.046 309.312 C 339.421 307.747,340.240 306.216,341.788 304.189 C 342.523 303.225,343.247 301.703,343.400 300.800 C 343.559 299.860,344.291 298.358,345.115 297.280 C 346.026 296.088,346.827 294.375,347.301 292.600 C 347.713 291.060,348.354 289.372,348.725 288.850 C 350.453 286.418,350.726 285.769,351.207 282.959 C 351.578 280.788,352.031 279.568,352.844 278.544 C 354.209 276.827,354.199 276.858,355.174 271.448 C 355.712 268.463,356.207 266.830,356.752 266.248 C 358.051 264.862,358.378 263.449,358.831 257.274 C 359.255 251.500,360.064 248.302,361.291 247.544 C 362.750 246.642,362.827 224.000,361.372 224.000 C 360.562 224.000,359.361 225.997,358.775 228.318 C 358.160 230.749,357.966 230.962,355.827 231.546 C 354.685 231.858,354.105 231.853,353.715 231.529 C 353.304 231.188,352.950 231.296,352.218 231.983 C 351.691 232.479,351.086 232.777,350.875 232.646 C 350.664 232.516,350.256 232.692,349.968 233.038 C 348.806 234.438,346.130 235.970,345.663 235.503 C 345.323 235.163,344.861 235.214,343.835 235.703 C 342.652 236.267,342.397 236.279,341.989 235.787 C 341.645 235.373,341.314 235.325,340.775 235.613 C 340.193 235.925,339.940 235.836,339.600 235.200 C 339.255 234.556,339.011 234.473,338.407 234.796 C 337.885 235.075,337.566 235.069,337.385 234.775 C 337.210 234.493,336.875 234.570,336.397 235.003 C 335.721 235.614,335.655 235.603,335.409 234.829 C 335.123 233.926,334.599 233.754,334.183 234.427 C 334.038 234.662,333.680 234.763,333.389 234.651 C 333.097 234.539,332.636 234.715,332.365 235.042 C 332.094 235.369,331.634 235.545,331.342 235.433 C 330.314 235.038,328.538 236.526,327.597 238.570 L 326.663 240.600 326.341 239.408 C 325.903 237.782,326.331 235.283,327.334 233.619 C 329.751 229.605,328.903 188.131,326.217 179.000 C 325.699 177.240,324.794 173.460,324.206 170.600 C 323.618 167.740,322.621 164.221,321.989 162.780 C 321.358 161.340,320.456 158.730,319.984 156.980 C 319.513 155.231,318.632 152.900,318.027 151.800 C 317.422 150.700,316.436 148.503,315.836 146.918 C 315.235 145.334,314.388 143.584,313.952 143.030 C 313.517 142.477,312.607 140.803,311.931 139.312 C 311.255 137.820,310.263 136.078,309.727 135.440 C 309.190 134.803,308.200 133.183,307.526 131.840 C 306.852 130.498,306.048 129.253,305.739 129.074 C 305.430 128.894,304.633 127.784,303.969 126.606 C 303.304 125.429,302.481 124.233,302.140 123.950 C 301.798 123.667,300.929 122.512,300.208 121.385 C 299.487 120.258,298.062 118.360,297.041 117.168 C 293.087 112.548,291.327 110.575,289.400 108.603 C 288.300 107.477,287.082 106.206,286.693 105.778 C 286.304 105.350,284.899 104.010,283.571 102.800 C 282.242 101.590,280.491 99.967,279.678 99.194 C 278.865 98.421,277.570 97.358,276.800 96.831 C 276.030 96.305,274.770 95.291,274.000 94.578 C 273.230 93.866,271.602 92.652,270.383 91.882 C 269.163 91.111,267.914 90.179,267.608 89.809 C 267.301 89.440,266.210 88.712,265.182 88.191 C 264.155 87.670,262.789 86.803,262.148 86.263 C 261.507 85.723,259.831 84.725,258.425 84.043 C 257.019 83.362,255.563 82.528,255.189 82.190 C 254.815 81.852,253.057 80.971,251.282 80.234 C 249.507 79.496,247.546 78.531,246.926 78.089 C 246.305 77.647,244.178 76.794,242.199 76.193 C 240.219 75.592,237.607 74.601,236.394 73.992 C 235.181 73.382,232.031 72.427,229.394 71.868 C 226.757 71.309,223.430 70.475,222.000 70.015 C 217.553 68.584,211.556 68.187,201.929 68.688 C 187.012 69.463,171.235 68.084,162.351 65.227 C 159.628 64.352,155.983 63.325,154.251 62.946 C 152.519 62.567,150.460 61.822,149.677 61.291 C 147.819 60.030,146.813 59.666,143.373 59.007 C 140.192 58.399,137.600 57.436,137.600 56.864 C 137.600 56.372,135.190 55.426,132.312 54.786 C 130.721 54.433,129.720 53.937,129.027 53.160 C 128.472 52.536,127.271 51.842,126.315 51.592 C 125.372 51.345,123.975 50.980,123.210 50.781 C 120.680 50.123,119.877 53.044,121.942 55.395 C 122.626 56.174,123.458 57.338,123.791 57.983 C 124.125 58.628,125.343 59.783,126.499 60.551 C 127.654 61.318,129.139 62.509,129.799 63.198 C 130.458 63.887,131.780 64.796,132.737 65.219 C 133.693 65.642,134.816 66.421,135.231 66.949 C 135.647 67.477,137.192 68.392,138.664 68.982 C 140.137 69.571,141.783 70.401,142.323 70.825 C 142.863 71.250,144.586 71.977,146.152 72.441 C 147.718 72.904,150.080 73.881,151.400 74.610 C 152.720 75.340,154.880 76.238,156.200 76.607 C 157.520 76.975,159.230 77.681,160.000 78.175 C 161.497 79.136,164.053 80.029,167.588 80.828 C 168.792 81.100,170.952 81.908,172.388 82.625 C 173.874 83.365,176.811 84.311,179.200 84.818 C 181.510 85.309,184.030 85.927,184.800 86.191 C 185.933 86.581,186.773 86.555,189.200 86.057 C 193.150 85.246,209.553 85.153,212.800 85.923 C 214.010 86.210,218.381 86.956,222.513 87.581 C 228.191 88.440,230.535 88.971,232.113 89.757 C 233.261 90.329,235.780 91.248,237.711 91.800 C 239.641 92.351,241.913 93.260,242.758 93.820 C 243.604 94.379,245.264 95.201,246.448 95.646 C 247.631 96.090,249.234 96.957,250.008 97.572 C 250.783 98.187,252.223 99.094,253.208 99.588 C 254.194 100.082,255.540 100.978,256.200 101.578 C 256.860 102.179,258.210 103.155,259.200 103.746 C 264.618 106.983,276.209 118.852,279.905 124.946 C 280.287 125.577,281.200 126.827,281.934 127.724 C 282.667 128.622,283.818 130.446,284.490 131.778 C 285.162 133.110,286.133 134.752,286.648 135.427 C 287.163 136.103,287.863 137.444,288.203 138.408 C 288.543 139.373,289.449 141.283,290.216 142.655 C 290.982 144.026,291.988 146.371,292.450 147.867 C 292.912 149.362,293.713 151.399,294.231 152.393 C 294.749 153.387,295.704 156.540,296.353 159.400 C 297.002 162.260,297.824 165.282,298.179 166.116 C 299.622 169.507,301.103 187.624,300.638 196.200 C 299.914 209.556,298.548 219.126,296.837 222.829 C 296.129 224.360,295.319 227.237,294.832 229.943 C 294.106 233.982,293.865 234.652,292.661 235.985 C 291.617 237.140,291.150 238.187,290.626 240.541 C 289.950 243.580,288.961 245.308,288.410 244.416 C 288.259 244.172,287.849 244.083,287.499 244.217 C 287.093 244.373,286.700 244.160,286.417 243.631 C 285.985 242.824,285.686 242.800,276.040 242.800 C 266.714 242.800,266.046 242.751,265.091 242.000 C 264.531 241.560,263.552 241.200,262.913 241.200 C 262.275 241.200,261.404 240.936,260.976 240.613 C 260.549 240.290,259.647 240.020,258.970 240.013 C 258.222 240.005,256.970 239.452,255.772 238.600 C 254.682 237.825,253.316 237.200,252.714 237.200 C 251.067 237.200,245.963 235.422,244.226 234.243 C 241.274 232.240,237.845 232.752,236.487 235.400 C 234.819 238.652,232.976 238.634,233.145 235.367 C 233.250 233.340,233.842 232.104,234.862 231.780 C 235.638 231.534,236.796 228.865,236.809 227.292 C 236.818 226.176,237.683 224.197,239.358 221.462 C 239.894 220.587,240.516 218.606,240.803 216.862 C 241.080 215.178,241.813 212.621,242.433 211.179 C 246.532 201.644,246.221 166.138,241.955 156.418 C 241.524 155.438,240.716 152.828,240.159 150.618 C 239.602 148.408,238.693 145.822,238.139 144.872 C 237.586 143.921,236.695 141.851,236.159 140.272 C 235.623 138.692,234.686 136.680,234.077 135.800 C 233.468 134.920,232.532 133.210,231.998 132.000 C 231.463 130.790,230.502 129.183,229.863 128.429 C 229.223 127.675,228.453 126.467,228.151 125.744 C 227.849 125.021,227.092 123.838,226.470 123.115 C 225.847 122.392,224.739 120.900,224.006 119.800 C 221.429 115.931,211.224 105.743,208.164 103.985 C 207.045 103.341,205.459 102.282,204.639 101.631 C 203.820 100.980,202.216 100.142,201.075 99.769 C 199.934 99.395,197.967 98.557,196.704 97.906 C 195.033 97.045,192.876 96.460,188.781 95.755 C 185.686 95.223,182.069 94.347,180.744 93.808 C 179.419 93.270,176.607 92.455,174.495 91.998 C 172.384 91.540,169.474 90.651,168.028 90.023 C 166.583 89.394,163.875 88.402,162.011 87.818 C 160.147 87.234,157.717 86.248,156.611 85.627 C 155.505 85.005,153.450 84.107,152.045 83.630 C 150.640 83.153,148.691 82.213,147.714 81.541 C 146.737 80.869,144.827 79.871,143.469 79.324 C 142.111 78.777,140.550 77.907,140.000 77.390 C 139.450 76.873,137.765 75.898,136.255 75.222 C 134.745 74.546,133.167 73.558,132.749 73.025 C 132.330 72.493,131.351 71.848,130.573 71.591 C 129.795 71.334,128.067 70.249,126.734 69.178 C 125.400 68.108,123.730 67.041,123.023 66.808 C 122.317 66.574,121.343 65.849,120.860 65.195 C 120.376 64.541,119.277 63.647,118.417 63.209 C 117.557 62.770,116.602 62.052,116.295 61.614 C 115.988 61.175,115.032 60.339,114.172 59.755 C 111.700 58.077,105.248 51.957,102.400 48.589 C 100.970 46.897,99.140 44.764,98.333 43.848 C 96.140 41.358,95.064 38.291,95.967 37.103 C 96.345 36.607,96.892 35.607,97.183 34.881 C 97.474 34.156,98.243 33.288,98.891 32.953 C 99.597 32.588,100.369 31.668,100.814 30.661 C 101.224 29.736,102.035 28.533,102.618 27.989 C 104.205 26.508,105.264 24.135,105.500 21.529 C 105.742 18.864,105.406 18.327,105.106 20.900 M127.273 54.200 C 127.927 54.750,128.723 55.200,129.043 55.200 C 130.117 55.200,134.446 56.819,135.931 57.776 C 136.739 58.297,139.093 59.202,141.163 59.787 C 143.233 60.372,145.762 61.274,146.784 61.792 C 147.806 62.310,151.025 63.379,153.937 64.168 C 156.849 64.957,159.666 65.887,160.197 66.235 C 161.529 67.107,164.183 67.874,169.722 68.985 C 174.162 69.876,174.561 70.036,176.392 71.666 C 177.463 72.620,178.890 73.817,179.565 74.327 C 180.239 74.836,180.937 75.816,181.115 76.505 C 181.387 77.552,181.934 78.005,184.482 79.291 C 193.248 83.714,182.927 86.095,173.600 81.802 C 171.950 81.043,169.070 80.042,167.200 79.579 C 165.330 79.116,162.868 78.206,161.728 77.556 C 160.589 76.906,158.699 76.093,157.528 75.751 C 156.358 75.408,154.388 74.619,153.152 73.996 C 151.915 73.374,149.575 72.470,147.952 71.988 C 146.328 71.506,144.280 70.693,143.400 70.183 C 142.520 69.673,140.810 68.870,139.600 68.400 C 138.390 67.929,136.860 67.036,136.200 66.415 C 135.540 65.794,134.280 64.924,133.400 64.482 C 132.520 64.040,131.356 63.202,130.813 62.620 C 130.270 62.039,128.872 60.827,127.707 59.928 C 126.460 58.966,125.486 57.863,125.338 57.247 C 125.200 56.671,124.852 55.732,124.564 55.160 C 123.564 53.170,125.312 52.550,127.273 54.200 M58.800 59.261 C 59.570 59.474,60.867 59.823,61.682 60.035 C 62.497 60.247,63.681 60.856,64.313 61.388 C 64.945 61.920,66.707 62.824,68.229 63.396 C 69.751 63.969,71.515 64.924,72.150 65.519 C 73.086 66.396,73.222 66.443,72.874 65.767 C 72.259 64.577,71.679 64.174,69.199 63.220 C 67.879 62.712,66.514 61.812,65.785 60.968 C 64.733 59.753,64.221 59.513,61.985 59.190 C 58.515 58.688,56.869 58.725,58.800 59.261 M119.785 90.634 C 120.133 91.165,120.729 91.600,121.109 91.600 C 121.694 91.600,124.502 93.302,128.800 96.261 C 132.624 98.894,134.866 100.181,139.800 102.577 C 152.772 108.878,155.481 110.256,157.000 111.322 C 157.880 111.940,159.141 112.787,159.802 113.205 C 164.277 116.030,177.187 134.531,179.197 141.000 C 179.471 141.880,180.226 143.829,180.875 145.331 C 183.947 152.436,184.576 165.496,182.121 171.200 C 181.790 171.970,181.379 172.960,181.209 173.400 C 181.038 173.840,180.000 176.090,178.901 178.400 C 177.802 180.710,176.766 183.050,176.598 183.600 C 176.430 184.150,176.181 184.690,176.046 184.800 C 175.572 185.185,174.800 186.795,174.800 187.397 C 174.800 188.111,173.590 190.631,171.244 194.800 C 170.316 196.450,169.269 198.475,168.918 199.300 C 168.566 200.125,168.145 200.800,167.983 200.800 C 167.820 200.800,167.574 201.250,167.436 201.800 C 167.298 202.350,167.008 202.800,166.792 202.800 C 166.577 202.800,166.400 203.025,166.400 203.300 C 166.399 204.268,163.923 209.024,162.370 211.037 C 161.507 212.157,160.800 213.302,160.800 213.580 C 160.800 214.850,158.317 219.243,157.668 219.119 C 156.140 218.828,157.009 209.955,158.628 209.334 C 159.687 208.928,159.996 207.740,160.613 201.720 C 160.946 198.464,161.619 193.820,162.108 191.400 C 163.238 185.811,163.298 175.444,162.233 169.800 C 161.860 167.820,161.122 163.410,160.593 160.000 C 159.604 153.614,158.732 150.081,157.786 148.631 C 157.488 148.174,156.761 146.090,156.171 144.000 C 155.581 141.910,154.513 139.210,153.799 138.000 C 153.085 136.790,152.203 134.883,151.839 133.762 C 151.475 132.641,150.718 131.111,150.156 130.362 C 149.595 129.613,148.630 128.010,148.012 126.800 C 147.393 125.590,146.489 124.240,146.001 123.800 C 145.514 123.360,144.792 122.367,144.397 121.594 C 143.568 119.968,136.868 113.125,134.800 111.790 C 132.714 110.444,125.019 102.795,124.251 101.304 C 123.884 100.591,123.113 99.699,122.537 99.322 C 121.962 98.945,121.224 97.998,120.899 97.218 C 120.573 96.438,119.830 95.258,119.248 94.595 C 117.809 92.954,116.848 90.065,117.590 89.606 C 118.324 89.153,119.032 89.484,119.785 90.634 M155.797 221.190 C 156.523 223.479,153.826 228.461,152.778 226.765 C 152.327 226.035,152.781 222.383,153.457 221.300 C 154.150 220.189,155.460 220.127,155.797 221.190 M189.965 233.965 C 190.424 234.424,191.094 234.800,191.453 234.800 C 191.812 234.800,192.667 235.145,193.353 235.567 C 194.039 235.988,195.410 236.652,196.400 237.042 C 198.736 237.961,201.741 239.772,204.000 241.621 C 204.990 242.431,206.790 243.693,208.000 244.425 C 209.210 245.156,211.280 246.685,212.600 247.822 C 216.565 251.237,217.362 251.443,219.461 249.600 C 220.213 248.940,221.047 248.382,221.314 248.360 C 224.479 248.102,224.555 248.060,224.582 246.536 C 224.607 245.091,225.975 244.201,227.009 244.957 C 228.023 245.699,227.332 247.304,225.617 248.191 C 224.948 248.537,224.400 249.057,224.400 249.346 C 224.400 250.244,222.167 254.008,221.255 254.646 C 220.779 254.980,220.012 256.006,219.550 256.926 C 219.089 257.847,218.187 259.022,217.546 259.537 C 216.905 260.052,216.129 261.073,215.823 261.806 C 215.517 262.538,214.793 263.449,214.213 263.828 C 213.633 264.208,212.881 265.056,212.542 265.712 C 212.203 266.368,211.267 267.587,210.463 268.420 C 209.658 269.253,207.110 271.951,204.800 274.414 C 201.026 278.439,199.231 280.221,192.729 286.400 C 186.625 292.200,179.921 297.788,173.800 302.178 C 171.820 303.598,169.656 305.201,168.991 305.740 C 168.327 306.278,167.067 307.127,166.191 307.626 C 165.316 308.125,164.150 308.940,163.600 309.438 C 163.050 309.935,161.340 311.011,159.800 311.827 C 158.260 312.644,156.640 313.632,156.200 314.023 C 155.760 314.414,154.410 315.199,153.200 315.768 C 151.990 316.337,150.388 317.253,149.641 317.802 C 148.893 318.351,147.237 319.181,145.961 319.646 C 144.684 320.112,143.330 320.836,142.950 321.255 C 142.570 321.675,140.716 322.490,138.830 323.067 C 136.943 323.645,135.035 324.444,134.589 324.845 C 131.290 327.804,126.085 327.340,124.820 323.974 C 123.938 321.627,122.976 320.290,118.700 315.470 C 116.775 313.300,115.200 311.259,115.200 310.935 C 115.200 310.612,114.776 309.774,114.257 309.073 C 113.738 308.373,113.038 307.260,112.701 306.600 C 110.458 302.205,110.059 301.875,109.430 303.890 C 108.796 305.923,105.514 307.244,105.093 305.636 C 104.543 303.532,105.045 301.475,106.381 300.359 C 107.108 299.752,108.031 298.523,108.432 297.627 C 109.334 295.613,114.198 290.381,117.292 288.095 C 118.561 287.158,119.600 286.216,119.600 286.002 C 119.600 285.788,120.495 285.160,121.589 284.606 C 122.683 284.051,123.974 283.062,124.458 282.407 C 124.942 281.752,125.961 281.011,126.721 280.760 C 127.482 280.509,128.776 279.697,129.597 278.955 C 130.419 278.213,132.072 277.157,133.271 276.608 C 134.471 276.058,135.890 275.139,136.426 274.565 C 136.962 273.991,138.300 273.070,139.400 272.518 C 140.500 271.967,141.940 271.017,142.600 270.406 C 143.260 269.796,144.684 268.812,145.765 268.220 C 146.845 267.628,148.070 266.710,148.486 266.181 C 148.903 265.651,149.999 264.880,150.922 264.467 C 151.845 264.054,152.960 263.310,153.400 262.814 C 153.840 262.318,155.415 261.125,156.900 260.164 C 158.385 259.203,159.600 258.240,159.600 258.025 C 159.600 257.810,160.410 257.159,161.400 256.579 C 162.390 255.999,163.566 255.009,164.015 254.379 C 164.463 253.750,165.515 252.850,166.351 252.379 C 167.188 251.909,168.182 250.999,168.562 250.357 C 168.941 249.715,169.934 248.842,170.768 248.416 C 171.644 247.970,172.488 247.153,172.765 246.485 C 173.038 245.825,173.840 245.043,174.627 244.668 C 175.453 244.274,176.275 243.450,176.672 242.618 C 177.061 241.802,177.887 240.965,178.670 240.594 C 179.487 240.206,180.322 239.337,180.825 238.350 C 181.368 237.286,182.111 236.546,183.014 236.168 C 183.821 235.831,184.651 235.065,185.040 234.299 C 186.183 232.050,186.328 231.959,187.805 232.576 C 188.534 232.881,189.506 233.506,189.965 233.965 M231.127 240.757 C 231.311 242.631,230.431 243.587,229.226 242.824 C 228.734 242.513,228.758 242.224,229.391 240.819 C 230.247 238.923,230.945 238.898,231.127 240.757 M103.465 309.026 C 103.742 309.747,103.001 311.600,102.436 311.600 C 101.888 311.600,101.502 310.140,101.800 309.200 C 102.102 308.249,103.126 308.141,103.465 309.026 " stroke="none" fill="#e9ac14" fill-rule="evenodd"></path><path id="path1" d="M88.281 11.224 C 82.868 11.686,77.780 12.692,75.835 13.684 C 74.936 14.143,72.760 15.006,71.000 15.601 C 69.240 16.197,66.647 17.431,65.238 18.342 C 63.829 19.254,62.445 20.000,62.162 20.000 C 61.880 20.000,60.783 20.724,59.724 21.608 C 54.938 25.608,51.600 28.603,51.600 28.897 C 51.600 29.074,50.875 30.004,49.990 30.965 C 49.104 31.925,47.449 34.486,46.312 36.656 L 44.243 40.600 44.222 44.600 C 44.198 48.924,44.211 48.964,46.979 52.978 C 48.212 54.766,49.091 55.536,50.979 56.486 C 52.311 57.156,53.970 58.202,54.667 58.811 C 55.364 59.420,56.984 60.310,58.267 60.789 C 59.550 61.268,61.500 62.165,62.600 62.782 C 63.700 63.399,65.535 64.206,66.677 64.576 C 67.820 64.946,69.350 65.681,70.077 66.209 C 70.805 66.737,72.238 67.621,73.263 68.173 C 77.968 70.707,88.768 79.731,92.042 83.863 C 92.395 84.308,93.033 84.927,93.460 85.236 C 93.887 85.546,94.628 86.442,95.105 87.226 C 95.583 88.011,96.362 89.001,96.835 89.426 C 97.308 89.852,98.330 91.190,99.105 92.400 C 99.880 93.610,101.109 95.296,101.835 96.147 C 102.562 96.998,103.268 98.199,103.404 98.817 C 103.539 99.435,104.336 100.899,105.174 102.070 C 107.247 104.969,110.136 114.640,111.008 121.600 C 111.940 129.044,112.366 131.143,113.480 133.791 C 114.036 135.111,114.919 138.551,115.442 141.434 C 115.965 144.318,116.843 148.055,117.393 149.739 C 120.077 157.961,120.070 182.694,117.381 192.113 C 116.830 194.045,116.105 197.105,115.771 198.913 C 115.097 202.561,114.141 205.782,113.372 207.000 C 113.094 207.440,112.370 209.420,111.763 211.400 C 111.156 213.380,110.242 215.636,109.734 216.413 C 109.225 217.190,108.362 218.967,107.815 220.361 C 107.269 221.755,106.287 223.730,105.633 224.749 C 104.978 225.769,104.003 227.599,103.464 228.817 C 102.925 230.035,102.181 231.284,101.810 231.592 C 101.438 231.900,100.628 233.153,100.008 234.376 C 99.389 235.599,98.321 237.303,97.635 238.163 C 96.949 239.022,95.998 240.372,95.522 241.163 C 95.046 241.953,94.014 243.356,93.228 244.280 C 92.443 245.204,90.810 247.162,89.600 248.630 C 87.731 250.898,82.614 256.505,79.791 259.377 C 79.347 259.830,76.935 262.090,74.432 264.400 C 65.301 272.829,57.649 280.874,55.330 284.484 C 54.724 285.428,53.637 286.876,52.914 287.701 C 52.191 288.527,51.596 289.427,51.591 289.701 C 51.587 289.976,50.786 291.429,49.813 292.932 C 48.839 294.435,47.738 296.595,47.365 297.732 C 46.992 298.869,46.083 300.970,45.346 302.400 C 41.325 310.197,41.216 329.325,45.141 338.267 C 46.701 341.819,46.702 341.769,45.000 343.653 C 43.319 345.513,42.946 350.001,44.302 352.060 C 46.787 355.835,50.766 359.960,53.039 361.119 C 53.940 361.578,54.966 362.394,55.319 362.933 C 55.680 363.483,56.788 364.193,57.851 364.556 C 60.440 365.438,61.043 365.336,58.685 364.414 C 57.632 364.003,56.056 363.021,55.184 362.233 C 54.311 361.445,53.409 360.800,53.179 360.800 C 52.606 360.800,47.993 356.221,46.278 353.950 C 43.147 349.802,42.972 346.431,45.756 343.836 C 48.580 341.204,49.431 336.796,47.616 334.200 C 44.809 330.185,44.622 316.162,47.309 311.201 C 48.189 309.577,49.871 303.639,49.995 301.719 C 49.998 301.674,50.632 301.338,51.404 300.971 C 52.328 300.533,52.888 299.944,53.040 299.252 C 53.428 297.487,54.453 294.400,54.651 294.400 C 55.188 294.400,56.854 296.805,57.283 298.200 C 57.553 299.080,58.352 300.561,59.058 301.492 C 59.764 302.423,60.456 303.548,60.597 303.992 C 60.739 304.436,61.067 304.801,61.327 304.801 C 61.587 304.802,62.250 305.654,62.800 306.695 C 63.350 307.736,64.204 308.787,64.699 309.030 C 65.193 309.274,66.504 310.418,67.612 311.574 C 68.842 312.857,69.850 313.589,70.201 313.455 C 70.516 313.334,70.871 313.391,70.989 313.583 C 71.303 314.090,74.095 314.489,78.200 314.613 C 82.343 314.739,84.966 313.718,86.382 311.431 C 86.801 310.754,87.715 309.660,88.412 309.000 C 89.109 308.340,90.235 307.000,90.913 306.022 C 91.590 305.045,92.697 303.642,93.373 302.904 C 94.048 302.167,95.442 300.627,96.470 299.482 C 99.473 296.139,100.665 294.989,107.527 288.808 C 108.777 287.682,110.070 286.492,110.400 286.165 C 112.338 284.241,113.384 283.211,114.073 282.548 C 114.500 282.137,115.456 281.170,116.198 280.400 C 116.939 279.630,117.873 278.671,118.273 278.268 C 120.465 276.060,123.631 272.574,125.301 270.528 C 129.076 265.904,132.400 261.519,132.400 261.164 C 132.400 260.965,133.005 260.127,133.745 259.301 C 134.486 258.476,135.410 257.170,135.801 256.400 C 136.191 255.630,137.027 254.407,137.658 253.683 C 138.290 252.958,139.329 251.338,139.968 250.083 C 140.608 248.827,141.485 247.586,141.919 247.326 C 142.353 247.065,142.991 246.020,143.337 245.004 C 143.683 243.988,144.699 242.237,145.594 241.113 C 146.489 239.988,147.424 238.264,147.672 237.281 C 147.987 236.027,148.448 235.306,149.213 234.867 C 150.470 234.145,151.822 230.537,151.426 228.960 C 150.910 226.905,148.844 228.270,148.228 231.070 C 148.003 232.097,147.557 232.516,145.812 233.342 C 144.502 233.963,143.391 234.830,142.949 235.578 C 141.753 237.604,140.819 237.227,136.179 232.843 C 130.274 227.265,120.947 222.644,116.361 223.025 C 113.798 223.238,113.614 223.018,113.606 219.733 C 113.601 217.669,113.832 216.829,115.022 214.585 C 115.805 213.110,116.597 210.980,116.782 209.852 C 116.968 208.723,117.339 206.470,117.606 204.844 C 117.874 203.219,118.412 201.329,118.802 200.644 C 122.648 193.898,122.521 152.066,118.629 143.573 C 118.016 142.237,117.266 139.278,116.753 136.173 C 116.282 133.328,115.377 129.582,114.740 127.850 C 113.942 125.677,113.335 122.761,112.782 118.450 C 111.868 111.326,111.578 110.063,110.496 108.511 C 110.070 107.900,109.220 106.074,108.608 104.454 C 107.996 102.834,107.002 100.944,106.400 100.254 C 105.798 99.564,104.846 98.089,104.284 96.975 C 103.722 95.861,102.966 94.704,102.605 94.404 C 102.243 94.104,101.152 92.630,100.182 91.129 C 99.211 89.628,98.263 88.400,98.076 88.400 C 97.889 88.400,97.185 87.635,96.512 86.700 C 95.840 85.765,93.191 82.930,90.626 80.400 C 84.226 74.087,83.216 73.150,81.571 72.000 C 80.784 71.450,79.344 70.347,78.370 69.548 C 77.397 68.750,75.790 67.695,74.800 67.204 C 73.810 66.713,72.549 65.890,71.998 65.375 C 71.447 64.859,69.737 63.966,68.198 63.388 C 66.659 62.811,65.040 62.015,64.600 61.620 C 63.491 60.622,62.522 60.189,60.200 59.655 C 59.100 59.402,57.300 58.760,56.200 58.228 C 55.100 57.696,53.121 56.834,51.803 56.312 C 47.721 54.696,44.571 49.760,44.649 45.102 C 44.703 41.878,48.085 34.703,50.967 31.697 C 54.973 27.518,57.805 25.098,59.460 24.438 C 60.154 24.162,61.120 23.511,61.609 22.991 C 62.097 22.471,63.870 21.556,65.548 20.958 C 67.227 20.359,68.960 19.551,69.400 19.161 C 70.402 18.274,71.700 17.780,75.084 16.995 C 76.551 16.655,79.113 15.767,80.776 15.022 C 85.606 12.858,99.654 11.600,102.269 13.098 C 106.401 15.463,106.607 24.266,102.618 27.989 C 102.035 28.533,101.224 29.736,100.814 30.661 C 100.369 31.668,99.597 32.588,98.891 32.953 C 98.243 33.288,97.474 34.156,97.183 34.881 C 96.892 35.607,96.345 36.607,95.967 37.103 C 95.064 38.291,96.140 41.358,98.333 43.848 C 99.140 44.764,100.970 46.897,102.400 48.589 C 105.248 51.957,111.700 58.077,114.172 59.755 C 115.032 60.339,115.988 61.175,116.295 61.614 C 116.602 62.052,117.557 62.770,118.417 63.209 C 119.277 63.647,120.376 64.541,120.860 65.195 C 121.343 65.849,122.317 66.574,123.023 66.808 C 123.730 67.041,125.400 68.108,126.734 69.178 C 128.067 70.249,129.795 71.334,130.573 71.591 C 131.351 71.848,132.330 72.493,132.749 73.025 C 133.167 73.558,134.745 74.546,136.255 75.222 C 137.765 75.898,139.450 76.873,140.000 77.390 C 140.550 77.907,142.111 78.777,143.469 79.324 C 144.827 79.871,146.737 80.869,147.714 81.541 C 148.691 82.213,150.640 83.153,152.045 83.630 C 153.450 84.107,155.505 85.005,156.611 85.627 C 157.717 86.248,160.147 87.234,162.011 87.818 C 163.875 88.402,166.583 89.394,168.028 90.023 C 169.474 90.651,172.384 91.540,174.495 91.998 C 176.607 92.455,179.419 93.270,180.744 93.808 C 182.069 94.347,185.686 95.223,188.781 95.755 C 192.876 96.460,195.033 97.045,196.704 97.906 C 197.967 98.557,199.934 99.395,201.075 99.769 C 202.216 100.142,203.820 100.980,204.639 101.631 C 205.459 102.282,207.045 103.341,208.164 103.985 C 211.224 105.743,221.429 115.931,224.006 119.800 C 224.739 120.900,225.847 122.392,226.470 123.115 C 227.092 123.838,227.849 125.021,228.151 125.744 C 228.453 126.467,229.223 127.675,229.863 128.429 C 230.502 129.183,231.463 130.790,231.998 132.000 C 232.532 133.210,233.468 134.920,234.077 135.800 C 234.686 136.680,235.623 138.692,236.159 140.272 C 236.695 141.851,237.586 143.921,238.139 144.872 C 238.693 145.822,239.602 148.408,240.159 150.618 C 240.716 152.828,241.524 155.438,241.955 156.418 C 246.221 166.138,246.532 201.644,242.433 211.179 C 241.813 212.621,241.080 215.178,240.803 216.862 C 240.516 218.606,239.894 220.587,239.358 221.462 C 237.683 224.197,236.818 226.176,236.809 227.292 C 236.796 228.865,235.638 231.534,234.862 231.780 C 233.842 232.104,233.250 233.340,233.145 235.367 C 232.976 238.634,234.819 238.652,236.487 235.400 C 237.845 232.752,241.274 232.240,244.226 234.243 C 245.963 235.422,251.067 237.200,252.714 237.200 C 253.316 237.200,254.682 237.825,255.772 238.600 C 256.970 239.452,258.222 240.005,258.970 240.013 C 259.647 240.020,260.549 240.290,260.976 240.613 C 261.404 240.936,262.275 241.200,262.913 241.200 C 263.552 241.200,264.531 241.560,265.091 242.000 C 266.046 242.751,266.714 242.800,276.040 242.800 C 285.686 242.800,285.985 242.824,286.417 243.631 C 286.700 244.160,287.093 244.373,287.499 244.217 C 287.849 244.083,288.259 244.172,288.410 244.416 C 288.961 245.308,289.950 243.580,290.626 240.541 C 291.150 238.187,291.617 237.140,292.661 235.985 C 293.865 234.652,294.106 233.982,294.832 229.943 C 295.319 227.237,296.129 224.360,296.837 222.829 C 301.033 213.746,301.950 174.976,298.179 166.116 C 297.824 165.282,297.002 162.260,296.353 159.400 C 295.704 156.540,294.749 153.387,294.231 152.393 C 293.713 151.399,292.912 149.362,292.450 147.867 C 291.988 146.371,290.982 144.026,290.216 142.655 C 289.449 141.283,288.543 139.373,288.203 138.408 C 287.863 137.444,287.163 136.103,286.648 135.427 C 286.133 134.752,285.162 133.110,284.490 131.778 C 283.818 130.446,282.667 128.622,281.934 127.724 C 281.200 126.827,280.287 125.577,279.905 124.946 C 276.209 118.852,264.618 106.983,259.200 103.746 C 258.210 103.155,256.860 102.179,256.200 101.578 C 255.540 100.978,254.194 100.082,253.208 99.588 C 252.223 99.094,250.783 98.187,250.008 97.572 C 249.234 96.957,247.631 96.090,246.448 95.646 C 245.264 95.201,243.604 94.379,242.758 93.820 C 241.913 93.260,239.641 92.351,237.711 91.800 C 235.780 91.248,233.261 90.329,232.113 89.757 C 230.535 88.971,228.191 88.440,222.513 87.581 C 218.381 86.956,214.010 86.210,212.800 85.923 C 209.553 85.153,193.150 85.246,189.200 86.057 C 186.773 86.555,185.933 86.581,184.800 86.191 C 184.030 85.927,181.510 85.309,179.200 84.818 C 176.811 84.311,173.874 83.365,172.388 82.625 C 170.952 81.908,168.792 81.100,167.588 80.828 C 164.053 80.029,161.497 79.136,160.000 78.175 C 159.230 77.681,157.520 76.975,156.200 76.607 C 154.880 76.238,152.720 75.340,151.400 74.610 C 150.080 73.881,147.718 72.904,146.152 72.441 C 144.586 71.977,142.863 71.250,142.323 70.825 C 141.783 70.401,140.137 69.571,138.664 68.982 C 137.192 68.392,135.647 67.477,135.231 66.949 C 134.816 66.421,133.693 65.642,132.737 65.219 C 131.780 64.796,130.458 63.887,129.799 63.198 C 129.139 62.509,127.654 61.318,126.499 60.551 C 125.343 59.783,124.125 58.628,123.791 57.983 C 123.458 57.338,122.626 56.174,121.942 55.395 C 119.877 53.044,120.680 50.123,123.210 50.781 C 123.975 50.980,125.372 51.345,126.315 51.592 C 127.271 51.842,128.472 52.536,129.027 53.160 C 129.720 53.937,130.721 54.433,132.312 54.786 C 135.190 55.426,137.600 56.372,137.600 56.864 C 137.600 57.436,140.192 58.399,143.373 59.007 C 146.813 59.666,147.819 60.030,149.677 61.291 C 150.460 61.822,152.519 62.567,154.251 62.946 C 155.983 63.325,159.628 64.352,162.351 65.227 C 171.235 68.084,187.012 69.463,201.929 68.688 C 211.556 68.187,217.553 68.584,222.000 70.015 C 223.430 70.475,226.757 71.309,229.394 71.868 C 232.031 72.427,235.181 73.382,236.394 73.992 C 237.607 74.601,240.219 75.592,242.199 76.193 C 244.178 76.794,246.305 77.647,246.926 78.089 C 247.546 78.531,249.507 79.496,251.282 80.234 C 253.057 80.971,254.815 81.852,255.189 82.190 C 255.563 82.528,257.019 83.362,258.425 84.043 C 259.831 84.725,261.507 85.723,262.148 86.263 C 262.789 86.803,264.155 87.670,265.182 88.191 C 266.210 88.712,267.301 89.440,267.608 89.809 C 267.914 90.179,269.163 91.111,270.383 91.882 C 271.602 92.652,273.230 93.866,274.000 94.578 C 274.770 95.291,276.030 96.305,276.800 96.831 C 277.570 97.358,278.865 98.421,279.678 99.194 C 280.491 99.967,282.242 101.590,283.571 102.800 C 284.899 104.010,286.304 105.350,286.693 105.778 C 287.082 106.206,288.300 107.477,289.400 108.603 C 291.327 110.575,293.087 112.548,297.041 117.168 C 298.062 118.360,299.487 120.258,300.208 121.385 C 300.929 122.512,301.798 123.667,302.140 123.950 C 302.481 124.233,303.304 125.429,303.969 126.606 C 304.633 127.784,305.430 128.894,305.739 129.074 C 306.048 129.253,306.852 130.498,307.526 131.840 C 308.200 133.183,309.190 134.803,309.727 135.440 C 310.263 136.078,311.255 137.820,311.931 139.312 C 312.607 140.803,313.517 142.477,313.952 143.030 C 314.388 143.584,315.235 145.334,315.836 146.918 C 316.436 148.503,317.422 150.700,318.027 151.800 C 318.632 152.900,319.513 155.231,319.984 156.980 C 320.456 158.730,321.358 161.340,321.989 162.780 C 322.621 164.221,323.618 167.740,324.206 170.600 C 324.794 173.460,325.699 177.240,326.217 179.000 C 328.903 188.131,329.751 229.605,327.334 233.619 C 326.331 235.283,325.903 237.782,326.341 239.408 L 326.663 240.600 327.597 238.570 C 328.538 236.526,330.314 235.038,331.342 235.433 C 331.634 235.545,332.094 235.369,332.365 235.042 C 332.636 234.715,333.097 234.539,333.389 234.651 C 333.680 234.763,334.038 234.662,334.183 234.427 C 334.599 233.754,335.123 233.926,335.409 234.829 C 335.655 235.603,335.721 235.614,336.397 235.003 C 336.875 234.570,337.210 234.493,337.385 234.775 C 337.566 235.069,337.885 235.075,338.407 234.796 C 339.011 234.473,339.255 234.556,339.600 235.200 C 339.940 235.836,340.193 235.925,340.775 235.613 C 341.314 235.325,341.645 235.373,341.989 235.787 C 342.397 236.279,342.652 236.267,343.835 235.703 C 344.861 235.214,345.323 235.163,345.663 235.503 C 346.130 235.970,348.806 234.438,349.968 233.038 C 350.256 232.692,350.664 232.516,350.875 232.646 C 351.086 232.777,351.691 232.479,352.218 231.983 C 352.950 231.296,353.304 231.188,353.715 231.529 C 354.105 231.853,354.685 231.858,355.827 231.546 C 357.966 230.962,358.160 230.749,358.775 228.318 C 359.361 225.997,360.562 224.000,361.372 224.000 C 362.827 224.000,362.750 246.642,361.291 247.544 C 360.064 248.302,359.255 251.500,358.831 257.274 C 358.378 263.449,358.051 264.862,356.752 266.248 C 356.207 266.830,355.712 268.463,355.174 271.448 C 354.199 276.858,354.209 276.827,352.844 278.544 C 352.031 279.568,351.578 280.788,351.207 282.959 C 350.726 285.769,350.453 286.418,348.725 288.850 C 348.354 289.372,347.713 291.060,347.301 292.600 C 346.827 294.375,346.026 296.088,345.115 297.280 C 344.291 298.358,343.559 299.860,343.400 300.800 C 343.247 301.703,342.523 303.225,341.788 304.189 C 340.240 306.216,339.421 307.747,339.046 309.312 C 338.899 309.923,338.308 310.823,337.733 311.312 C 337.159 311.800,336.106 313.460,335.395 315.000 C 334.684 316.540,333.699 318.160,333.208 318.600 C 332.716 319.040,331.886 320.242,331.364 321.272 C 330.842 322.302,330.042 323.405,329.587 323.724 C 329.132 324.043,328.183 325.211,327.479 326.319 C 321.896 335.114,304.778 352.851,295.458 359.500 C 294.609 360.105,293.169 361.251,292.258 362.046 C 291.346 362.842,289.970 363.810,289.200 364.198 C 288.430 364.586,286.891 365.757,285.779 366.800 C 284.667 367.843,283.362 368.822,282.879 368.975 C 281.560 369.394,281.819 369.891,283.455 370.082 C 285.674 370.341,288.274 368.994,288.835 367.294 C 289.173 366.269,289.690 365.759,290.942 365.214 C 291.854 364.817,293.140 363.915,293.800 363.210 C 294.460 362.505,295.510 361.662,296.133 361.337 C 297.188 360.786,299.257 359.056,304.200 354.590 C 306.907 352.145,316.370 342.697,318.710 340.105 C 319.749 338.953,321.241 337.333,322.025 336.505 C 322.808 335.677,323.876 334.370,324.398 333.600 C 324.919 332.830,326.020 331.453,326.844 330.540 C 327.669 329.627,328.701 328.187,329.138 327.340 C 329.576 326.493,330.305 325.576,330.759 325.301 C 331.214 325.027,332.019 323.947,332.549 322.901 C 333.080 321.856,333.913 320.640,334.401 320.200 C 334.888 319.760,335.827 318.320,336.486 317.000 C 337.145 315.680,338.106 314.150,338.621 313.600 C 339.136 313.050,339.945 311.722,340.419 310.650 C 340.894 309.577,341.876 307.922,342.602 306.970 C 343.328 306.019,344.220 304.343,344.585 303.245 C 344.949 302.148,345.766 300.598,346.399 299.801 C 347.033 299.004,347.948 297.148,348.434 295.676 C 348.920 294.204,349.806 292.280,350.402 291.400 C 350.998 290.520,351.970 288.298,352.562 286.461 C 353.153 284.625,354.147 282.195,354.769 281.061 C 355.392 279.928,356.204 277.740,356.574 276.200 C 356.944 274.660,357.774 272.309,358.420 270.975 C 359.065 269.641,360.047 266.501,360.601 263.996 C 361.155 261.492,362.057 258.320,362.607 256.947 C 363.192 255.483,364.013 251.835,364.590 248.125 C 365.132 244.646,366.011 240.090,366.543 238.000 C 369.955 224.595,369.762 186.496,366.218 174.000 C 365.688 172.130,364.964 169.070,364.610 167.200 C 363.520 161.447,362.787 158.706,361.613 156.000 C 360.993 154.570,360.017 151.870,359.445 150.000 C 358.873 148.130,357.909 145.873,357.302 144.983 C 356.696 144.094,355.842 142.049,355.404 140.438 C 354.821 138.294,354.301 137.252,353.462 136.545 C 352.328 135.591,350.800 132.307,350.800 130.824 C 350.800 129.581,349.694 128.722,348.747 129.228 C 347.996 129.631,347.957 130.003,348.075 135.657 C 348.191 141.215,348.143 141.700,347.424 142.229 C 346.288 143.064,346.102 142.972,345.164 141.100 C 344.695 140.165,343.767 138.963,343.102 138.429 C 342.436 137.895,341.371 136.635,340.734 135.629 C 340.097 134.623,339.024 133.170,338.349 132.400 C 337.675 131.630,336.555 130.159,335.861 129.132 C 333.574 125.744,330.909 122.219,329.710 120.994 C 329.060 120.331,328.068 119.071,327.505 118.194 C 326.942 117.317,325.968 116.118,325.341 115.528 C 324.713 114.938,322.940 113.048,321.400 111.328 C 319.860 109.608,316.390 106.220,313.690 103.800 C 310.989 101.380,308.289 98.886,307.690 98.259 C 307.090 97.631,305.928 96.774,305.106 96.354 C 304.284 95.934,303.312 95.133,302.946 94.574 C 302.581 94.016,301.741 93.280,301.081 92.938 C 299.939 92.348,295.175 88.067,293.422 86.056 C 289.755 81.850,289.887 82.077,290.090 80.295 C 290.196 79.363,290.766 77.890,291.356 77.023 C 292.782 74.926,292.584 74.360,290.074 73.359 C 288.910 72.895,287.382 71.961,286.679 71.282 C 285.942 70.571,284.129 69.591,282.403 68.971 C 280.755 68.378,278.865 67.494,278.203 67.006 C 276.805 65.975,276.502 65.854,272.077 64.561 C 270.249 64.027,267.885 63.150,266.824 62.612 C 265.742 62.064,262.541 61.173,259.547 60.586 C 256.606 60.010,252.490 59.112,250.400 58.591 C 239.626 55.902,215.935 55.584,206.400 58.001 C 189.215 62.356,168.639 62.365,160.024 58.021 C 159.241 57.626,156.620 56.798,154.200 56.181 C 151.780 55.564,148.630 54.480,147.200 53.772 C 145.770 53.063,143.610 52.202,142.400 51.858 C 141.190 51.514,139.300 50.660,138.200 49.960 C 137.100 49.261,135.390 48.342,134.400 47.918 C 133.410 47.495,132.150 46.737,131.600 46.233 C 131.050 45.730,129.478 44.638,128.107 43.806 C 122.882 40.638,114.082 30.751,112.081 25.800 C 111.547 24.480,110.636 22.770,110.055 22.001 C 109.475 21.231,108.341 19.611,107.536 18.401 C 102.694 11.122,100.234 10.205,88.281 11.224 M117.590 89.606 C 116.848 90.065,117.809 92.954,119.248 94.595 C 119.830 95.258,120.573 96.438,120.899 97.218 C 121.224 97.998,121.962 98.945,122.537 99.322 C 123.113 99.699,123.884 100.591,124.251 101.304 C 125.019 102.795,132.714 110.444,134.800 111.790 C 136.868 113.125,143.568 119.968,144.397 121.594 C 144.792 122.367,145.514 123.360,146.001 123.800 C 146.489 124.240,147.393 125.590,148.012 126.800 C 148.630 128.010,149.595 129.613,150.156 130.362 C 150.718 131.111,151.475 132.641,151.839 133.762 C 152.203 134.883,153.085 136.790,153.799 138.000 C 154.513 139.210,155.581 141.910,156.171 144.000 C 156.761 146.090,157.488 148.174,157.786 148.631 C 158.732 150.081,159.604 153.614,160.593 160.000 C 161.122 163.410,161.860 167.820,162.233 169.800 C 163.298 175.444,163.238 185.811,162.108 191.400 C 161.619 193.820,160.946 198.464,160.613 201.720 C 159.996 207.740,159.687 208.928,158.628 209.334 C 157.009 209.955,156.140 218.828,157.668 219.119 C 158.317 219.243,160.800 214.850,160.800 213.580 C 160.800 213.302,161.507 212.157,162.370 211.037 C 163.923 209.024,166.399 204.268,166.400 203.300 C 166.400 203.025,166.577 202.800,166.792 202.800 C 167.008 202.800,167.298 202.350,167.436 201.800 C 167.574 201.250,167.820 200.800,167.983 200.800 C 168.145 200.800,168.566 200.125,168.918 199.300 C 169.269 198.475,170.316 196.450,171.244 194.800 C 173.590 190.631,174.800 188.111,174.800 187.397 C 174.800 186.795,175.572 185.185,176.046 184.800 C 176.181 184.690,176.430 184.150,176.598 183.600 C 176.766 183.050,177.802 180.710,178.901 178.400 C 180.000 176.090,181.038 173.840,181.209 173.400 C 181.379 172.960,181.790 171.970,182.121 171.200 C 184.576 165.496,183.947 152.436,180.875 145.331 C 180.226 143.829,179.471 141.880,179.197 141.000 C 177.187 134.531,164.277 116.030,159.802 113.205 C 159.141 112.787,157.880 111.940,157.000 111.322 C 155.481 110.256,152.772 108.878,139.800 102.577 C 134.866 100.181,132.624 98.894,128.800 96.261 C 124.502 93.302,121.694 91.600,121.109 91.600 C 120.729 91.600,120.133 91.165,119.785 90.634 C 119.032 89.484,118.324 89.153,117.590 89.606 M244.115 97.666 C 245.404 97.940,246.234 98.385,246.656 99.030 C 247.028 99.598,248.263 100.345,249.689 100.864 C 251.011 101.347,252.837 102.364,253.747 103.126 C 254.656 103.887,256.152 104.833,257.072 105.229 C 257.991 105.624,258.934 106.303,259.167 106.738 C 259.399 107.173,260.267 107.944,261.095 108.451 C 262.865 109.536,270.613 117.291,273.200 120.566 C 274.190 121.819,275.652 123.600,276.448 124.522 C 277.245 125.445,278.269 126.938,278.725 127.840 C 279.182 128.742,280.211 130.339,281.013 131.389 C 281.814 132.440,282.711 133.982,283.006 134.817 C 283.300 135.651,284.159 137.231,284.913 138.329 C 285.668 139.426,286.499 141.170,286.759 142.204 C 287.020 143.238,287.972 145.625,288.875 147.509 C 290.706 151.327,291.417 159.687,290.051 161.337 C 288.826 162.817,286.137 162.220,284.692 160.147 C 283.981 159.129,282.680 157.540,281.800 156.617 C 280.920 155.695,279.663 153.895,279.006 152.617 C 278.349 151.340,277.419 150.038,276.939 149.723 C 276.458 149.408,275.669 148.307,275.185 147.275 C 274.702 146.244,273.680 144.705,272.914 143.856 C 272.149 143.007,271.106 141.412,270.596 140.313 C 270.052 139.139,269.169 138.009,268.455 137.575 C 267.626 137.071,267.103 136.324,266.806 135.221 C 266.494 134.062,266.029 133.429,265.161 132.980 C 264.397 132.585,263.676 131.710,263.201 130.603 C 262.788 129.640,261.971 128.538,261.386 128.154 C 260.800 127.770,260.204 127.142,260.061 126.758 C 259.705 125.805,251.503 117.552,247.978 114.600 C 246.402 113.280,244.377 111.480,243.477 110.600 C 242.578 109.721,241.084 108.520,240.157 107.932 C 238.744 107.036,237.540 105.702,234.663 101.844 C 234.462 101.576,234.747 100.438,235.363 99.044 L 236.402 96.697 239.301 96.978 C 240.895 97.133,243.062 97.443,244.115 97.666 M345.476 123.346 C 344.854 124.967,345.298 127.200,346.243 127.200 C 346.941 127.200,346.949 125.435,346.258 123.814 C 345.827 122.803,345.711 122.734,345.476 123.346 M153.457 221.300 C 152.781 222.383,152.327 226.035,152.778 226.765 C 153.826 228.461,156.523 223.479,155.797 221.190 C 155.460 220.127,154.150 220.189,153.457 221.300 M186.090 232.511 C 185.875 232.780,185.403 233.584,185.040 234.299 C 184.651 235.065,183.821 235.831,183.014 236.168 C 182.111 236.546,181.368 237.286,180.825 238.350 C 180.322 239.337,179.487 240.206,178.670 240.594 C 177.887 240.965,177.061 241.802,176.672 242.618 C 176.275 243.450,175.453 244.274,174.627 244.668 C 173.840 245.043,173.038 245.825,172.765 246.485 C 172.488 247.153,171.644 247.970,170.768 248.416 C 169.934 248.842,168.941 249.715,168.562 250.357 C 168.182 250.999,167.188 251.909,166.351 252.379 C 165.515 252.850,164.463 253.750,164.015 254.379 C 163.566 255.009,162.390 255.999,161.400 256.579 C 160.410 257.159,159.600 257.810,159.600 258.025 C 159.600 258.240,158.385 259.203,156.900 260.164 C 155.415 261.125,153.840 262.318,153.400 262.814 C 152.960 263.310,151.845 264.054,150.922 264.467 C 149.999 264.880,148.903 265.651,148.486 266.181 C 148.070 266.710,146.845 267.628,145.765 268.220 C 144.684 268.812,143.260 269.796,142.600 270.406 C 141.940 271.017,140.500 271.967,139.400 272.518 C 138.300 273.070,136.962 273.991,136.426 274.565 C 135.890 275.139,134.471 276.058,133.271 276.608 C 132.072 277.157,130.419 278.213,129.597 278.955 C 128.776 279.697,127.482 280.509,126.721 280.760 C 125.961 281.011,124.942 281.752,124.458 282.407 C 123.974 283.062,122.683 284.051,121.589 284.606 C 120.495 285.160,119.600 285.788,119.600 286.002 C 119.600 286.216,118.561 287.158,117.292 288.095 C 114.198 290.381,109.334 295.613,108.432 297.627 C 108.031 298.523,107.108 299.752,106.381 300.359 C 105.045 301.475,104.543 303.532,105.093 305.636 C 105.514 307.244,108.796 305.923,109.430 303.890 C 110.059 301.875,110.458 302.205,112.701 306.600 C 113.038 307.260,113.738 308.373,114.257 309.073 C 114.776 309.774,115.200 310.612,115.200 310.935 C 115.200 311.259,116.775 313.300,118.700 315.470 C 122.976 320.290,123.938 321.627,124.820 323.974 C 126.085 327.340,131.290 327.804,134.589 324.845 C 135.035 324.444,136.943 323.645,138.830 323.067 C 140.716 322.490,142.570 321.675,142.950 321.255 C 143.330 320.836,144.684 320.112,145.961 319.646 C 147.237 319.181,148.893 318.351,149.641 317.802 C 150.388 317.253,151.990 316.337,153.200 315.768 C 154.410 315.199,155.760 314.414,156.200 314.023 C 156.640 313.632,158.260 312.644,159.800 311.827 C 161.340 311.011,163.050 309.935,163.600 309.438 C 164.150 308.940,165.316 308.125,166.191 307.626 C 167.067 307.127,168.327 306.278,168.991 305.740 C 169.656 305.201,171.820 303.598,173.800 302.178 C 179.921 297.788,186.625 292.200,192.729 286.400 C 199.231 280.221,201.026 278.439,204.800 274.414 C 207.110 271.951,209.658 269.253,210.463 268.420 C 211.267 267.587,212.203 266.368,212.542 265.712 C 212.881 265.056,213.633 264.208,214.213 263.828 C 214.793 263.449,215.517 262.538,215.823 261.806 C 216.129 261.073,216.905 260.052,217.546 259.537 C 218.187 259.022,219.089 257.847,219.550 256.926 C 220.012 256.006,220.779 254.980,221.255 254.646 C 222.167 254.008,224.400 250.244,224.400 249.346 C 224.400 249.057,224.948 248.537,225.617 248.191 C 227.332 247.304,228.023 245.699,227.009 244.957 C 225.975 244.201,224.607 245.091,224.582 246.536 C 224.555 248.060,224.479 248.102,221.314 248.360 C 221.047 248.382,220.213 248.940,219.461 249.600 C 217.362 251.443,216.565 251.237,212.600 247.822 C 211.280 246.685,209.210 245.156,208.000 244.425 C 206.790 243.693,204.990 242.431,204.000 241.621 C 201.741 239.772,198.736 237.961,196.400 237.042 C 195.410 236.652,194.039 235.988,193.353 235.567 C 192.667 235.145,191.812 234.800,191.453 234.800 C 191.094 234.800,190.424 234.424,189.965 233.965 C 188.700 232.700,186.575 231.903,186.090 232.511 M229.391 240.819 C 228.758 242.224,228.734 242.513,229.226 242.824 C 230.431 243.587,231.311 242.631,231.127 240.757 C 230.945 238.898,230.247 238.923,229.391 240.819 M101.800 309.200 C 101.502 310.140,101.888 311.600,102.436 311.600 C 103.001 311.600,103.742 309.747,103.465 309.026 C 103.126 308.141,102.102 308.249,101.800 309.200 M64.247 367.113 C 65.127 367.946,66.067 368.371,67.447 368.559 C 70.120 368.922,73.316 369.644,73.800 369.994 C 74.020 370.152,74.830 370.111,75.600 369.903 L 77.000 369.523 75.400 368.167 C 73.538 366.590,72.721 366.479,71.554 367.646 C 70.507 368.693,66.347 368.429,65.000 367.231 C 63.600 365.985,62.948 365.883,64.247 367.113 M68.000 372.200 C 67.230 372.497,66.870 372.739,67.200 372.739 C 67.530 372.739,68.430 372.497,69.200 372.200 C 69.970 371.903,70.330 371.661,70.000 371.661 C 69.670 371.661,68.770 371.903,68.000 372.200 M296.000 372.567 C 300.376 373.718,301.027 374.093,302.014 376.027 C 303.233 378.417,302.728 378.670,291.800 381.151 C 284.878 382.723,268.177 385.100,263.033 385.246 C 262.135 385.272,261.753 385.382,262.184 385.492 C 266.859 386.679,301.861 380.412,305.106 377.807 C 305.606 377.405,302.956 373.984,301.879 373.643 C 299.388 372.852,294.056 371.601,293.333 371.636 C 292.930 371.656,294.130 372.075,296.000 372.567 M63.850 373.388 C 61.777 374.127,61.577 374.384,61.482 376.438 L 61.400 378.200 64.800 379.342 C 71.274 381.516,87.366 384.434,95.800 384.962 L 99.000 385.163 96.200 384.786 C 82.064 382.882,70.748 380.747,65.741 379.041 L 63.000 378.107 63.082 376.391 C 63.175 374.446,63.505 373.994,65.318 373.330 C 66.023 373.072,66.330 372.855,66.000 372.848 C 65.670 372.841,64.702 373.084,63.850 373.388 M99.900 385.482 C 100.395 385.578,101.205 385.578,101.700 385.482 C 102.195 385.387,101.790 385.309,100.800 385.309 C 99.810 385.309,99.405 385.387,99.900 385.482 M105.600 386.017 C 114.468 387.306,139.814 389.266,145.777 389.123 C 148.882 389.049,148.905 389.041,146.400 388.924 C 138.879 388.573,123.830 387.452,115.000 386.585 C 105.191 385.622,101.241 385.384,105.600 386.017 M258.700 385.882 C 259.195 385.978,260.005 385.978,260.500 385.882 C 260.995 385.787,260.590 385.709,259.600 385.709 C 258.610 385.709,258.205 385.787,258.700 385.882 M249.000 386.828 C 242.705 387.577,232.824 388.247,220.400 388.768 C 214.616 389.011,213.917 389.091,217.200 389.135 C 225.746 389.251,244.643 388.021,252.946 386.808 C 259.210 385.893,256.748 385.905,249.000 386.828 M155.100 389.499 C 158.235 389.567,163.365 389.567,166.500 389.499 C 169.635 389.432,167.070 389.376,160.800 389.376 C 154.530 389.376,151.965 389.432,155.100 389.499 M193.925 389.499 C 197.293 389.566,202.693 389.566,205.925 389.499 C 209.156 389.432,206.400 389.377,199.800 389.377 C 193.200 389.377,190.556 389.432,193.925 389.499 " stroke="none" fill="#f6e965" fill-rule="evenodd"></path><path id="path2" d="M101.786 13.984 C 100.276 14.590,99.831 15.492,100.877 15.825 C 103.252 16.578,103.358 18.718,101.200 22.297 C 100.320 23.756,99.600 25.247,99.600 25.610 C 99.600 25.974,98.157 28.211,96.394 30.583 C 92.421 35.928,92.481 35.828,93.751 34.995 C 94.328 34.617,94.800 34.142,94.800 33.939 C 94.800 33.736,95.655 32.741,96.700 31.727 C 97.745 30.713,98.960 29.295,99.400 28.576 C 99.840 27.857,100.820 26.405,101.577 25.350 C 104.980 20.610,105.127 12.644,101.786 13.984 M47.469 38.863 C 40.475 42.463,47.702 59.094,55.275 56.825 C 57.122 56.271,56.954 55.780,54.712 55.176 C 49.136 53.675,46.559 47.349,48.626 40.232 C 49.319 37.846,49.357 37.891,47.469 38.863 M46.925 343.241 C 44.352 343.986,42.956 348.501,44.441 351.276 C 45.784 353.786,52.202 360.800,53.156 360.800 C 53.373 360.800,54.362 361.502,55.354 362.360 C 56.569 363.411,58.210 364.271,60.392 364.997 C 62.171 365.590,64.127 366.495,64.738 367.009 C 67.819 369.602,72.370 368.595,71.543 365.503 C 70.968 363.355,71.049 363.387,65.344 362.982 C 62.982 362.814,61.337 362.488,60.698 362.061 C 60.153 361.697,59.008 360.933,58.154 360.361 C 57.299 359.790,55.922 359.100,55.093 358.828 C 54.124 358.510,53.371 357.918,52.985 357.171 C 52.654 356.531,51.682 355.650,50.826 355.213 C 49.694 354.636,49.194 354.084,49.000 353.200 C 48.853 352.529,48.282 351.445,47.731 350.791 C 46.575 349.417,46.701 346.856,47.996 345.400 C 48.388 344.960,48.831 344.195,48.981 343.700 C 49.284 342.701,49.006 342.639,46.925 343.241 M207.600 359.284 C 203.769 360.822,202.363 361.501,200.600 362.668 C 199.500 363.397,197.527 364.369,196.215 364.830 C 194.903 365.290,193.353 366.006,192.771 366.421 C 192.189 366.835,190.148 367.741,188.236 368.432 C 185.876 369.286,184.554 370.004,184.120 370.666 C 183.310 371.903,182.020 372.566,178.798 373.401 C 177.386 373.766,175.741 374.415,175.142 374.841 C 170.312 378.280,140.375 378.660,132.000 375.389 C 129.438 374.388,126.238 374.243,123.200 374.990 C 115.209 376.955,95.474 376.641,89.919 374.461 C 88.314 373.831,85.590 372.989,83.866 372.590 C 82.060 372.172,79.980 371.366,78.954 370.687 C 76.916 369.336,77.631 369.233,69.108 372.107 C 63.230 374.089,63.190 374.117,63.082 376.391 L 63.000 378.107 65.703 379.028 C 79.860 383.854,122.782 388.422,161.357 389.206 C 197.340 389.939,232.208 388.815,255.200 386.183 C 259.930 385.641,267.040 384.830,271.000 384.380 C 286.125 382.659,301.658 379.524,302.599 378.002 C 303.001 377.352,301.239 374.440,300.096 373.866 C 298.821 373.225,291.375 371.391,287.600 370.788 C 286.170 370.560,284.240 370.224,283.311 370.042 C 281.889 369.764,281.414 369.851,280.311 370.596 C 278.758 371.644,277.223 372.162,273.269 372.970 C 271.657 373.300,269.227 374.012,267.869 374.553 C 261.200 377.210,236.697 377.175,231.375 374.501 C 230.509 374.066,228.584 373.310,227.097 372.822 C 225.565 372.318,223.911 371.449,223.277 370.815 C 222.662 370.200,221.358 369.297,220.379 368.807 C 218.637 367.934,216.674 366.252,212.621 362.159 C 209.837 359.347,208.850 358.782,207.600 359.284 " stroke="none" fill="#635c64" fill-rule="evenodd"></path><path id="path3" d="M97.862 15.783 C 97.016 16.085,95.936 16.682,95.462 17.110 C 88.008 23.843,64.249 34.000,55.955 34.000 C 54.906 34.000,53.930 34.190,53.787 34.421 C 53.644 34.653,52.688 35.238,51.663 35.721 C 46.989 37.926,46.405 48.195,50.708 52.499 C 54.832 56.623,59.272 57.140,65.590 54.232 C 67.685 53.268,70.046 52.276,70.835 52.029 C 71.625 51.783,72.885 51.116,73.635 50.548 C 74.386 49.981,76.080 49.018,77.400 48.408 C 78.720 47.799,80.250 46.901,80.800 46.412 C 81.350 45.923,82.340 45.249,83.000 44.913 C 85.854 43.461,90.000 40.128,90.853 38.600 C 91.871 36.774,92.245 36.237,96.500 30.471 C 98.205 28.161,99.600 25.974,99.600 25.610 C 99.600 25.247,100.320 23.756,101.200 22.297 C 103.423 18.611,103.284 16.847,100.681 15.695 C 100.066 15.423,99.526 15.208,99.481 15.218 C 99.437 15.227,98.708 15.482,97.862 15.783 M141.600 65.576 C 141.600 66.247,142.390 66.466,143.710 66.162 C 144.981 65.869,144.985 65.860,144.000 65.572 C 142.540 65.145,141.600 65.147,141.600 65.576 M168.800 77.206 C 167.777 77.878,169.105 78.387,171.900 78.394 C 174.915 78.401,175.153 77.828,172.380 77.233 C 169.924 76.706,169.565 76.704,168.800 77.206 M179.200 81.164 L 178.200 81.449 179.074 81.925 C 180.078 82.471,183.449 82.567,183.764 82.058 C 184.309 81.177,181.256 80.579,179.200 81.164 M156.612 101.580 C 156.298 102.088,157.433 102.646,159.461 102.982 C 160.953 103.229,161.147 103.394,161.374 104.604 C 161.549 105.537,162.023 106.197,162.914 106.748 C 163.621 107.186,165.323 108.862,166.695 110.472 C 186.971 134.266,196.652 160.478,194.454 185.638 C 193.770 193.468,191.414 205.697,189.978 208.863 C 188.200 212.787,187.865 217.600,189.370 217.600 C 189.961 217.600,191.200 214.459,191.200 212.961 C 191.200 211.530,191.619 210.811,192.814 210.193 C 194.057 209.550,194.803 207.659,195.612 203.100 C 195.908 201.429,196.525 199.744,197.232 198.677 C 201.141 192.775,201.543 159.080,197.794 151.600 C 197.298 150.610,196.414 148.000,195.830 145.800 C 195.246 143.600,194.327 141.164,193.789 140.387 C 193.251 139.609,192.357 137.637,191.801 136.004 C 191.246 134.371,190.357 132.577,189.826 132.017 C 189.294 131.458,188.239 129.633,187.481 127.962 C 186.723 126.292,185.837 124.823,185.512 124.698 C 185.188 124.574,184.533 123.645,184.058 122.634 C 183.583 121.623,182.596 120.121,181.865 119.298 C 181.134 118.474,179.984 116.990,179.308 116.000 C 178.633 115.010,177.506 113.660,176.804 113.000 C 176.103 112.340,175.278 111.320,174.972 110.734 C 174.665 110.148,173.717 109.248,172.863 108.734 C 172.010 108.220,170.179 107.035,168.794 106.100 C 167.049 104.922,165.856 104.400,164.907 104.400 C 163.931 104.400,163.207 104.068,162.382 103.244 C 160.687 101.549,157.245 100.556,156.612 101.580 M185.203 220.793 C 184.384 222.769,185.460 224.157,186.420 222.363 C 186.890 221.485,186.631 219.600,186.041 219.600 C 185.852 219.600,185.475 220.137,185.203 220.793 M289.849 261.816 C 289.462 262.826,289.556 265.526,289.988 265.793 C 290.421 266.060,290.847 264.701,290.939 262.759 C 291.005 261.391,290.260 260.746,289.849 261.816 M285.646 269.300 C 285.462 269.795,285.190 270.867,285.041 271.683 C 284.861 272.668,284.322 273.541,283.436 274.283 C 282.054 275.441,281.100 277.017,280.653 278.882 C 280.510 279.477,279.765 280.443,278.997 281.029 C 278.229 281.615,277.600 282.265,277.600 282.473 C 277.600 283.361,275.401 287.238,274.599 287.764 C 274.117 288.079,273.256 289.324,272.685 290.530 C 272.115 291.735,271.297 292.967,270.869 293.267 C 270.440 293.567,269.509 294.800,268.799 296.006 C 268.090 297.213,266.809 298.961,265.955 299.891 C 265.100 300.821,264.400 301.774,264.400 302.008 C 264.400 302.243,263.622 303.282,262.671 304.317 C 261.720 305.353,260.535 306.875,260.038 307.700 C 259.541 308.525,258.986 309.200,258.805 309.200 C 258.623 309.200,257.806 310.131,256.988 311.270 C 254.682 314.479,247.153 322.740,240.927 328.889 C 231.675 338.029,226.610 342.482,219.612 347.628 C 218.544 348.413,217.019 349.627,216.224 350.325 C 215.429 351.024,214.108 351.941,213.289 352.364 C 209.778 354.176,207.480 358.039,209.238 359.173 C 209.767 359.515,211.204 360.786,212.432 361.997 C 217.142 366.646,218.658 367.945,220.379 368.807 C 221.358 369.297,222.662 370.200,223.277 370.815 C 223.911 371.449,225.565 372.318,227.097 372.822 C 228.584 373.310,230.509 374.066,231.375 374.501 C 233.662 375.651,238.365 376.375,243.400 376.353 L 247.800 376.335 243.791 375.628 C 238.661 374.725,236.896 374.131,236.604 373.214 C 236.342 372.388,234.545 371.438,231.584 370.558 C 228.950 369.776,229.016 369.657,233.200 367.687 C 235.843 366.442,236.800 365.793,236.800 365.245 C 236.800 364.077,237.846 361.863,238.810 360.992 C 239.291 360.556,240.007 359.570,240.400 358.800 C 240.793 358.030,241.512 357.040,241.998 356.601 C 242.484 356.161,243.135 355.312,243.445 354.713 C 243.755 354.114,245.715 351.633,247.800 349.200 C 249.885 346.767,251.879 344.197,252.229 343.488 C 252.580 342.780,253.571 341.480,254.430 340.600 C 256.512 338.469,263.892 330.072,269.400 323.567 C 273.686 318.505,274.151 317.919,275.249 316.188 C 275.872 315.205,276.528 314.400,276.705 314.400 C 276.882 314.400,277.373 313.815,277.795 313.101 C 278.217 312.386,279.245 310.901,280.080 309.801 C 280.914 308.700,282.339 306.360,283.247 304.600 C 284.154 302.840,285.315 300.680,285.827 299.800 C 288.425 295.336,289.139 288.400,287.000 288.400 C 284.599 288.400,284.594 281.900,286.992 277.000 C 288.184 274.562,288.947 270.223,288.372 269.148 C 287.798 268.075,286.065 268.172,285.646 269.300 M88.483 324.900 C 87.208 327.605,86.382 328.713,83.899 331.044 C 71.269 342.903,81.862 362.568,106.310 372.649 C 109.401 373.923,109.791 374.323,108.910 375.310 C 107.982 376.349,118.330 376.131,123.117 375.011 C 126.445 374.232,129.342 374.356,132.000 375.391 C 140.396 378.660,170.314 378.279,175.142 374.841 C 175.741 374.415,177.386 373.766,178.798 373.401 C 181.978 372.576,183.446 371.835,184.020 370.763 C 184.263 370.308,185.034 369.687,185.731 369.383 C 188.141 368.335,186.012 368.804,183.089 369.965 C 181.476 370.605,178.277 371.528,175.978 372.015 C 173.680 372.503,170.714 373.306,169.388 373.800 C 162.253 376.457,141.653 376.686,136.734 374.162 C 136.148 373.861,133.718 373.059,131.334 372.380 C 128.772 371.649,126.320 370.666,125.337 369.974 C 124.422 369.330,122.888 368.467,121.929 368.055 C 120.969 367.644,118.928 366.376,117.392 365.237 C 109.744 359.565,108.189 356.573,106.594 344.452 C 105.916 339.295,103.758 336.319,99.854 335.157 C 95.745 333.933,93.087 331.121,92.417 327.292 C 91.917 324.437,90.891 321.600,90.358 321.600 C 90.182 321.600,89.338 323.085,88.483 324.900 M51.842 341.010 C 49.791 341.784,49.301 342.229,49.003 343.586 C 48.866 344.208,48.424 345.017,48.019 345.383 C 46.721 346.557,46.574 349.416,47.740 350.802 C 48.286 351.450,48.853 352.529,49.000 353.200 C 49.194 354.084,49.694 354.636,50.826 355.213 C 51.682 355.650,52.654 356.531,52.985 357.171 C 53.371 357.918,54.124 358.510,55.093 358.828 C 55.922 359.100,57.298 359.790,58.150 360.361 C 59.003 360.933,60.173 361.698,60.750 362.062 C 62.368 363.083,70.762 363.720,71.700 362.893 C 72.749 361.968,72.561 361.258,70.841 359.654 C 69.984 358.854,68.923 357.480,68.484 356.600 C 68.044 355.720,67.282 354.640,66.789 354.200 C 66.297 353.760,65.108 351.780,64.148 349.800 C 60.106 341.463,56.833 339.125,51.842 341.010 " stroke="none" fill="#823d0c" fill-rule="evenodd"></path><path id="path4" d="M96.600 12.707 C 91.835 13.130,90.009 13.742,82.506 17.427 C 73.443 21.880,72.450 22.269,64.281 24.571 C 59.717 25.857,57.741 26.608,56.925 27.365 C 56.311 27.934,55.576 28.400,55.293 28.400 C 54.226 28.400,48.898 34.176,47.638 36.700 C 46.951 38.075,46.490 39.200,46.614 39.200 C 47.304 39.200,49.173 37.901,49.750 37.020 C 50.118 36.459,50.659 36.000,50.953 36.000 C 51.248 36.000,52.151 35.550,52.962 35.000 C 53.967 34.318,54.981 34.000,56.150 34.000 C 64.389 34.000,86.737 24.368,95.718 16.945 C 96.333 16.437,97.593 15.820,98.518 15.573 C 99.443 15.327,100.470 14.900,100.800 14.624 C 101.714 13.859,102.653 13.622,103.153 14.030 C 103.400 14.232,103.332 14.089,103.002 13.713 C 102.394 13.021,99.024 12.491,96.600 12.707 M104.416 17.009 C 104.386 19.241,102.966 23.416,101.577 25.350 C 100.820 26.405,99.829 27.879,99.376 28.625 C 98.923 29.371,97.843 30.688,96.976 31.551 C 93.267 35.243,91.651 37.097,90.832 38.600 C 89.997 40.132,85.889 43.443,83.000 44.913 C 82.340 45.249,81.350 45.923,80.800 46.412 C 80.250 46.901,78.720 47.799,77.400 48.408 C 76.080 49.018,74.386 49.981,73.635 50.548 C 72.885 51.116,71.625 51.783,70.835 52.029 C 70.046 52.276,67.690 53.265,65.600 54.227 C 62.858 55.489,61.132 56.024,59.400 56.148 C 52.850 56.620,53.537 58.062,60.773 59.030 C 64.332 59.506,64.615 59.615,65.773 60.954 C 66.529 61.829,67.844 62.690,69.200 63.199 C 70.410 63.653,71.850 64.537,72.400 65.162 C 72.950 65.788,74.300 66.753,75.400 67.307 C 76.500 67.861,77.760 68.714,78.200 69.203 C 78.640 69.693,79.810 70.644,80.800 71.317 C 82.719 72.622,83.082 72.961,90.800 80.648 C 96.680 86.505,99.884 89.965,100.873 91.528 C 101.266 92.148,102.273 93.207,103.112 93.881 C 103.950 94.555,104.970 95.847,105.379 96.753 C 106.422 99.065,108.095 99.081,110.353 96.800 C 111.224 95.920,112.086 95.197,112.269 95.194 C 113.422 95.173,113.752 94.431,112.984 93.584 C 112.326 92.857,112.200 92.133,112.200 89.071 C 112.200 83.380,111.734 83.335,126.800 90.490 C 139.422 96.484,152.634 103.598,158.630 107.628 C 161.777 109.743,165.715 113.791,168.387 117.656 C 169.354 119.055,171.108 121.599,172.286 123.308 C 186.392 143.786,192.669 166.053,190.387 187.516 C 189.077 199.833,185.144 213.649,180.627 221.800 C 179.896 223.120,179.163 224.650,179.000 225.200 C 178.836 225.750,177.913 227.396,176.948 228.858 C 175.983 230.320,174.941 232.120,174.632 232.858 C 174.323 233.596,173.587 234.650,172.996 235.200 C 172.405 235.750,171.581 236.865,171.164 237.679 C 170.747 238.492,170.156 239.302,169.850 239.479 C 169.545 239.655,168.749 240.610,168.081 241.600 C 167.414 242.590,166.321 243.920,165.653 244.556 C 164.985 245.192,164.328 246.216,164.193 246.832 C 164.039 247.534,163.434 248.255,162.573 248.763 C 161.324 249.500,160.802 250.669,161.438 251.304 C 161.569 251.435,162.244 251.196,162.938 250.773 C 163.632 250.349,164.500 250.002,164.867 250.001 C 165.234 250.001,165.930 249.360,166.413 248.578 C 166.927 247.747,167.896 246.911,168.746 246.566 C 169.680 246.186,170.415 245.514,170.800 244.687 C 171.136 243.966,172.056 243.049,172.893 242.601 C 173.713 242.161,174.593 241.299,174.848 240.684 C 175.102 240.070,175.908 239.075,176.638 238.473 C 177.368 237.871,178.702 236.350,179.602 235.093 C 180.502 233.836,181.572 232.629,181.980 232.410 C 182.388 232.192,183.099 231.235,183.560 230.283 C 184.021 229.331,184.947 228.025,185.619 227.382 C 186.290 226.739,187.298 225.189,187.860 223.938 C 188.421 222.687,189.307 221.263,189.827 220.774 C 190.348 220.285,191.258 218.606,191.849 217.042 C 192.440 215.479,193.423 213.480,194.033 212.600 C 194.643 211.720,195.524 209.650,195.990 208.000 C 196.456 206.350,197.364 203.825,198.009 202.389 C 199.302 199.508,199.822 197.163,201.463 186.800 C 203.243 175.564,201.771 156.149,198.626 149.381 C 198.018 148.071,197.100 145.497,196.587 143.660 C 196.074 141.824,195.200 139.664,194.645 138.860 C 194.089 138.057,193.164 136.140,192.587 134.600 C 192.011 133.060,191.209 131.440,190.805 131.000 C 190.402 130.560,189.424 128.850,188.631 127.200 C 187.839 125.550,186.853 123.918,186.441 123.572 C 186.028 123.227,185.309 122.197,184.843 121.283 C 184.376 120.370,183.480 119.032,182.851 118.311 C 182.222 117.590,181.041 115.955,180.226 114.677 C 179.412 113.400,178.492 112.257,178.181 112.137 C 177.870 112.018,177.212 111.263,176.717 110.460 C 175.521 108.518,170.819 103.837,169.248 103.025 C 168.559 102.669,167.571 101.705,167.052 100.883 C 166.533 100.061,165.814 99.144,165.454 98.845 C 164.434 97.998,164.660 97.453,166.600 96.085 C 168.721 94.590,168.805 94.248,167.200 93.649 C 166.540 93.402,165.456 92.997,164.792 92.748 C 164.128 92.500,163.280 91.782,162.909 91.153 C 162.384 90.265,161.537 89.778,159.103 88.968 C 157.381 88.394,155.484 87.517,154.886 87.017 C 153.604 85.946,151.200 84.702,149.090 84.020 C 148.259 83.751,147.060 83.094,146.425 82.560 C 145.790 82.025,144.219 81.114,142.935 80.535 C 141.651 79.955,139.774 78.884,138.765 78.154 C 137.756 77.424,136.046 76.450,134.965 75.988 C 133.884 75.526,132.550 74.739,132.000 74.239 C 131.450 73.739,129.920 72.734,128.600 72.007 C 127.280 71.280,125.461 70.080,124.559 69.342 C 123.656 68.604,122.744 68.000,122.531 68.000 C 122.318 68.000,121.356 67.325,120.393 66.500 C 119.429 65.675,117.977 64.550,117.164 64.000 C 105.892 56.369,89.647 37.200,94.452 37.200 C 94.653 37.200,95.347 36.365,95.995 35.344 C 96.642 34.323,97.826 32.838,98.625 32.044 C 103.411 27.290,106.587 19.772,105.026 16.894 L 104.432 15.800 104.416 17.009 M124.500 53.660 C 124.154 54.006,124.170 54.376,124.564 55.160 C 124.852 55.732,125.200 56.671,125.338 57.247 C 125.486 57.863,126.460 58.966,127.707 59.928 C 128.872 60.827,130.270 62.039,130.813 62.620 C 131.356 63.202,132.520 64.040,133.400 64.482 C 134.280 64.924,135.540 65.794,136.200 66.415 C 136.860 67.036,138.390 67.929,139.600 68.400 C 140.810 68.870,142.520 69.673,143.400 70.183 C 144.280 70.693,146.328 71.506,147.952 71.988 C 149.575 72.470,151.915 73.374,153.152 73.996 C 154.388 74.619,156.358 75.408,157.528 75.751 C 158.699 76.093,160.589 76.906,161.728 77.556 C 162.868 78.206,165.330 79.116,167.200 79.579 C 169.070 80.042,171.950 81.043,173.600 81.802 C 182.927 86.095,193.248 83.714,184.482 79.291 C 181.934 78.005,181.387 77.552,181.115 76.505 C 180.937 75.816,180.239 74.836,179.565 74.327 C 178.890 73.817,177.463 72.620,176.392 71.666 C 174.561 70.036,174.162 69.876,169.722 68.985 C 164.183 67.874,161.529 67.107,160.197 66.235 C 159.666 65.887,156.849 64.957,153.937 64.168 C 151.025 63.379,147.806 62.310,146.784 61.792 C 145.762 61.274,143.233 60.372,141.163 59.787 C 139.093 59.202,136.739 58.297,135.931 57.776 C 134.446 56.819,130.117 55.200,129.043 55.200 C 128.723 55.200,127.927 54.750,127.273 54.200 C 125.971 53.105,125.205 52.955,124.500 53.660 M144.000 65.572 C 144.985 65.860,144.981 65.869,143.710 66.162 C 142.390 66.466,141.600 66.247,141.600 65.576 C 141.600 65.147,142.540 65.145,144.000 65.572 M172.380 77.233 C 175.153 77.828,174.915 78.401,171.900 78.394 C 169.105 78.387,167.777 77.878,168.800 77.206 C 169.565 76.704,169.924 76.706,172.380 77.233 M182.969 81.258 C 183.522 81.511,183.880 81.871,183.764 82.058 C 183.449 82.567,180.078 82.471,179.074 81.925 L 178.200 81.449 179.200 81.164 C 180.735 80.728,181.865 80.756,182.969 81.258 M159.953 101.644 C 160.653 101.888,161.746 102.608,162.382 103.244 C 163.207 104.068,163.931 104.400,164.907 104.400 C 165.856 104.400,167.049 104.922,168.794 106.100 C 170.179 107.035,172.010 108.220,172.863 108.734 C 173.717 109.248,174.665 110.148,174.972 110.734 C 175.278 111.320,176.103 112.340,176.804 113.000 C 177.506 113.660,178.633 115.010,179.308 116.000 C 179.984 116.990,181.134 118.474,181.865 119.298 C 182.596 120.121,183.583 121.623,184.058 122.634 C 184.533 123.645,185.188 124.574,185.512 124.698 C 185.837 124.823,186.723 126.292,187.481 127.962 C 188.239 129.633,189.294 131.458,189.826 132.017 C 190.357 132.577,191.246 134.371,191.801 136.004 C 192.357 137.637,193.251 139.609,193.789 140.387 C 194.327 141.164,195.246 143.600,195.830 145.800 C 196.414 148.000,197.298 150.610,197.794 151.600 C 201.543 159.080,201.141 192.775,197.232 198.677 C 196.525 199.744,195.908 201.429,195.612 203.100 C 194.803 207.659,194.057 209.550,192.814 210.193 C 191.619 210.811,191.200 211.530,191.200 212.961 C 191.200 214.459,189.961 217.600,189.370 217.600 C 187.865 217.600,188.200 212.787,189.978 208.863 C 191.414 205.697,193.770 193.468,194.454 185.638 C 196.652 160.478,186.971 134.266,166.695 110.472 C 165.323 108.862,163.621 107.186,162.914 106.748 C 162.023 106.197,161.549 105.537,161.374 104.604 C 161.147 103.394,160.953 103.229,159.461 102.982 C 157.433 102.646,156.298 102.088,156.612 101.580 C 156.927 101.072,158.393 101.100,159.953 101.644 M186.626 220.563 C 186.759 221.092,186.666 221.902,186.420 222.363 C 185.460 224.157,184.384 222.769,185.203 220.793 C 185.801 219.350,186.302 219.269,186.626 220.563 M298.003 236.191 C 297.796 236.736,297.416 238.401,297.160 239.891 C 296.541 243.480,296.166 244.401,294.815 245.640 C 293.951 246.433,293.519 247.409,293.000 249.741 C 292.626 251.424,291.895 253.386,291.377 254.101 C 289.823 256.242,289.206 257.495,288.365 260.220 C 287.924 261.646,287.064 263.395,286.452 264.107 C 285.841 264.818,284.928 266.522,284.424 267.894 C 283.920 269.266,282.926 271.156,282.217 272.094 C 281.507 273.032,280.520 274.790,280.022 276.000 C 279.524 277.210,278.705 278.650,278.202 279.200 C 277.698 279.750,276.794 281.184,276.193 282.386 C 275.591 283.589,274.602 285.209,273.994 285.986 C 273.386 286.764,272.402 288.300,271.808 289.400 C 271.214 290.500,270.224 291.940,269.609 292.600 C 268.993 293.260,268.183 294.408,267.809 295.150 C 267.434 295.893,266.334 297.475,265.364 298.666 C 264.394 299.857,263.600 301.012,263.600 301.233 C 263.600 301.454,262.822 302.482,261.871 303.517 C 260.920 304.553,259.735 306.075,259.238 306.900 C 258.741 307.725,258.178 308.400,257.987 308.400 C 257.795 308.400,257.051 309.254,256.333 310.297 C 255.122 312.057,253.632 313.812,248.912 319.036 C 246.633 321.558,233.649 334.547,231.200 336.755 C 227.195 340.365,222.134 344.511,219.058 346.702 C 218.209 347.306,216.769 348.452,215.858 349.248 C 214.946 350.045,213.480 351.074,212.600 351.536 C 210.787 352.487,207.942 355.083,206.280 357.304 C 205.072 358.917,197.945 362.696,194.400 363.603 C 193.410 363.856,191.650 364.593,190.489 365.241 C 189.329 365.889,186.774 366.788,184.812 367.240 C 182.694 367.728,180.545 368.520,179.522 369.190 C 178.172 370.074,176.675 370.510,172.600 371.206 C 169.740 371.694,166.230 372.528,164.800 373.058 C 159.189 375.141,145.614 375.204,140.400 373.171 C 139.190 372.700,136.097 371.892,133.528 371.376 C 130.375 370.743,128.162 370.047,126.724 369.235 C 125.552 368.574,123.785 367.748,122.798 367.399 C 121.811 367.051,120.462 366.265,119.801 365.652 C 119.141 365.039,117.676 363.962,116.546 363.257 C 114.820 362.180,111.558 358.502,109.895 355.756 C 109.399 354.937,108.889 351.734,108.407 346.400 C 107.711 338.692,105.907 335.803,100.383 333.544 C 94.423 331.107,94.166 330.337,95.249 318.174 C 95.931 310.514,95.134 309.422,92.185 313.981 C 91.196 315.510,90.234 316.855,90.048 316.971 C 89.861 317.086,88.761 319.120,87.603 321.490 C 85.797 325.186,84.975 326.342,81.835 329.600 C 74.870 336.829,73.962 341.927,77.972 351.283 C 80.188 356.454,85.667 363.065,89.400 365.073 C 90.060 365.428,91.140 366.117,91.800 366.605 C 92.460 367.093,94.215 368.081,95.700 368.801 C 98.306 370.064,98.722 370.520,98.094 371.422 C 97.424 372.385,87.348 371.518,81.600 370.004 C 79.950 369.569,78.156 369.211,77.613 369.207 C 75.673 369.193,80.538 371.820,83.890 372.596 C 85.601 372.991,88.260 373.809,89.800 374.413 C 99.495 378.212,115.623 376.489,106.310 372.649 C 81.862 362.568,71.269 342.903,83.899 331.044 C 86.382 328.713,87.208 327.605,88.483 324.900 C 89.338 323.085,90.182 321.600,90.358 321.600 C 90.891 321.600,91.917 324.437,92.417 327.292 C 93.087 331.121,95.745 333.933,99.854 335.157 C 103.758 336.319,105.916 339.295,106.594 344.452 C 108.189 356.573,109.744 359.565,117.392 365.237 C 118.928 366.376,120.969 367.644,121.929 368.055 C 122.888 368.467,124.422 369.330,125.337 369.974 C 126.320 370.666,128.772 371.649,131.334 372.380 C 133.718 373.059,136.148 373.861,136.734 374.162 C 141.521 376.618,162.526 376.458,169.000 373.916 C 170.100 373.484,172.980 372.698,175.400 372.170 C 177.820 371.641,181.240 370.687,183.000 370.049 C 184.760 369.411,187.280 368.583,188.600 368.209 C 189.920 367.836,191.662 367.102,192.470 366.579 C 193.279 366.056,194.989 365.260,196.270 364.810 C 197.552 364.360,199.500 363.397,200.600 362.668 C 202.544 361.381,205.674 359.896,207.500 359.394 C 208.050 359.242,208.400 358.836,208.400 358.347 C 208.400 356.603,210.786 353.688,213.289 352.376 C 214.108 351.946,215.429 351.024,216.224 350.325 C 217.019 349.627,218.544 348.413,219.612 347.628 C 226.610 342.482,231.675 338.029,240.927 328.889 C 247.153 322.740,254.682 314.479,256.988 311.270 C 257.806 310.131,258.623 309.200,258.805 309.200 C 258.986 309.200,259.541 308.525,260.038 307.700 C 260.535 306.875,261.720 305.353,262.671 304.317 C 263.622 303.282,264.400 302.243,264.400 302.008 C 264.400 301.774,265.100 300.821,265.955 299.891 C 266.809 298.961,268.090 297.213,268.799 296.006 C 269.509 294.800,270.440 293.567,270.869 293.267 C 271.297 292.967,272.115 291.735,272.685 290.530 C 273.256 289.324,274.117 288.079,274.599 287.764 C 275.401 287.238,277.600 283.361,277.600 282.473 C 277.600 282.265,278.229 281.615,278.997 281.029 C 279.765 280.443,280.510 279.477,280.653 278.882 C 281.091 277.055,282.047 275.449,283.353 274.348 C 284.255 273.586,284.766 272.647,285.201 270.948 C 285.731 268.880,285.930 268.585,286.874 268.476 C 289.061 268.223,289.122 272.645,286.992 277.000 C 284.551 281.989,284.595 288.400,287.070 288.400 C 289.142 288.400,288.376 295.419,285.827 299.800 C 285.315 300.680,284.154 302.840,283.247 304.600 C 282.339 306.360,280.914 308.700,280.080 309.801 C 279.245 310.901,278.217 312.386,277.795 313.101 C 277.373 313.815,276.882 314.400,276.705 314.400 C 276.528 314.400,275.872 315.205,275.249 316.188 C 274.151 317.919,273.686 318.505,269.400 323.567 C 263.892 330.072,256.512 338.469,254.430 340.600 C 253.571 341.480,252.580 342.780,252.229 343.488 C 251.879 344.197,249.885 346.767,247.800 349.200 C 245.715 351.633,243.755 354.114,243.445 354.713 C 243.135 355.312,242.484 356.161,241.998 356.601 C 241.512 357.040,240.793 358.030,240.400 358.800 C 240.007 359.570,239.291 360.556,238.810 360.992 C 237.846 361.863,236.800 364.077,236.800 365.245 C 236.800 365.793,235.843 366.442,233.200 367.687 C 229.016 369.657,228.950 369.776,231.584 370.558 C 234.566 371.444,236.343 372.390,236.611 373.235 C 237.663 376.551,260.418 377.522,267.835 374.567 C 269.174 374.034,271.925 373.243,273.948 372.811 C 277.814 371.985,279.546 371.308,281.200 369.978 L 282.200 369.174 280.600 369.414 C 279.720 369.546,277.830 369.895,276.400 370.190 C 274.970 370.484,272.360 370.843,270.600 370.987 C 265.736 371.385,260.331 372.302,258.612 373.021 C 256.075 374.081,249.075 373.873,247.771 372.699 C 247.222 372.205,246.445 371.511,246.044 371.158 C 245.644 370.805,244.840 370.396,244.258 370.250 C 243.216 369.989,242.765 369.200,243.658 369.200 C 244.512 369.200,247.599 367.004,247.599 366.395 C 247.600 366.062,248.297 364.465,249.150 362.845 C 250.003 361.224,250.612 359.568,250.506 359.160 C 250.391 358.723,250.747 357.903,251.375 357.157 C 252.533 355.780,254.000 353.106,254.000 352.371 C 254.000 352.117,254.810 350.832,255.800 349.515 C 256.790 348.198,257.600 346.881,257.600 346.588 C 257.600 346.294,258.160 345.655,258.845 345.168 C 259.530 344.680,260.330 343.709,260.622 343.009 C 260.915 342.309,261.462 341.481,261.838 341.169 C 262.617 340.522,265.313 337.052,266.800 334.782 C 267.350 333.943,270.500 329.523,273.800 324.961 C 282.854 312.443,283.523 311.497,284.235 310.200 C 284.597 309.540,285.221 308.640,285.620 308.200 C 286.020 307.760,286.584 306.944,286.873 306.386 C 287.163 305.829,288.267 304.029,289.326 302.386 C 304.828 278.350,312.050 252.258,304.320 248.208 C 301.716 246.844,301.676 246.755,301.361 241.600 C 301.052 236.554,300.628 235.200,299.359 235.200 C 298.685 235.200,298.263 235.509,298.003 236.191 M290.939 262.759 C 290.847 264.701,290.421 266.060,289.988 265.793 C 289.556 265.526,289.462 262.826,289.849 261.816 C 290.260 260.746,291.005 261.391,290.939 262.759 M51.075 339.687 C 50.229 339.911,48.925 340.735,48.147 341.536 C 46.632 343.096,46.893 343.632,48.686 342.643 C 51.967 340.834,52.670 340.617,55.066 340.669 C 58.812 340.750,60.662 342.610,64.148 349.800 C 65.108 351.780,66.297 353.760,66.790 354.200 C 67.283 354.640,68.112 355.839,68.632 356.865 C 69.152 357.891,70.112 359.110,70.765 359.575 C 72.272 360.648,72.672 361.837,71.836 362.760 C 71.084 363.591,71.039 364.344,71.649 365.874 L 72.098 367.000 72.631 365.800 C 73.823 363.117,73.162 359.343,71.329 358.362 C 70.788 358.073,69.891 356.874,69.334 355.698 C 68.778 354.521,67.620 352.747,66.761 351.755 C 65.903 350.763,65.199 349.737,65.198 349.476 C 65.191 347.991,64.150 345.736,62.678 344.017 C 61.755 342.939,60.730 341.676,60.400 341.211 C 59.172 339.478,54.650 338.739,51.075 339.687 " stroke="none" fill="#8c880e" fill-rule="evenodd"></path></g></svg>